G75*
%MOIN*%
%OFA0B0*%
%FSLAX24Y24*%
%IPPOS*%
%LPD*%
%AMOC8*
5,1,8,0,0,1.08239X$1,22.5*
%
%ADD10C,0.0080*%
%ADD11C,0.0050*%
%ADD12C,0.0060*%
%ADD13C,0.0020*%
%ADD14C,0.0040*%
%ADD15R,0.0079X0.0079*%
%ADD16R,0.0098X0.0059*%
%ADD17C,0.0240*%
%ADD18C,0.0120*%
D10*
X009862Y005275D02*
X009862Y007856D01*
X011262Y007856D01*
X011262Y005275D01*
X009862Y005275D01*
X012051Y007894D02*
X012051Y008105D01*
X012122Y008175D01*
X012192Y008175D01*
X012262Y008105D01*
X012262Y007894D01*
X012472Y007894D02*
X012472Y008105D01*
X012402Y008175D01*
X012332Y008175D01*
X012262Y008105D01*
X012472Y007894D02*
X012051Y007894D01*
X012051Y008355D02*
X012472Y008355D01*
X012472Y008635D01*
X012472Y008815D02*
X012051Y008815D01*
X012262Y008885D02*
X012472Y009095D01*
X012332Y008815D02*
X012051Y009095D01*
X010362Y013416D02*
X009862Y013416D01*
X009612Y013666D01*
X009612Y014166D01*
X009362Y014416D01*
X009612Y014666D01*
X009612Y015166D01*
X009362Y015416D01*
X009612Y015666D01*
X009612Y016166D01*
X009362Y016416D01*
X009612Y016666D01*
X009612Y017166D01*
X009362Y017416D01*
X009612Y017666D01*
X009612Y018166D01*
X009362Y018416D01*
X009612Y018666D01*
X009612Y019166D01*
X009362Y019416D01*
X009612Y019666D01*
X009612Y020166D01*
X009362Y020416D01*
X008862Y020416D01*
X008612Y020166D01*
X008612Y019666D01*
X008862Y019416D01*
X008612Y019166D01*
X008612Y018666D01*
X008862Y018416D01*
X008612Y018166D01*
X008612Y017666D01*
X008862Y017416D01*
X008612Y017166D01*
X008612Y016666D01*
X008862Y016416D01*
X008612Y016166D01*
X008612Y015666D01*
X008862Y015416D01*
X008612Y015166D01*
X008612Y014666D01*
X008862Y014416D01*
X008612Y014166D01*
X008612Y013666D01*
X008862Y013416D01*
X009362Y013416D01*
X009612Y013666D01*
X009612Y014166D01*
X009862Y014416D01*
X009612Y014666D01*
X009612Y015166D01*
X009862Y015416D01*
X009612Y015666D01*
X009612Y016166D01*
X009862Y016416D01*
X009612Y016666D01*
X009612Y017166D01*
X009862Y017416D01*
X009612Y017666D01*
X009612Y018166D01*
X009862Y018416D01*
X009612Y018666D01*
X009612Y019166D01*
X009862Y019416D01*
X009612Y019666D01*
X009612Y020166D01*
X009862Y020416D01*
X010362Y020416D01*
X010612Y020166D01*
X010612Y019666D01*
X010362Y019416D01*
X010612Y019166D01*
X010612Y018666D01*
X010362Y018416D01*
X010612Y018166D01*
X010612Y017666D01*
X010362Y017416D01*
X010612Y017166D01*
X010612Y016666D01*
X010362Y016416D01*
X010612Y016166D01*
X010612Y015666D01*
X010362Y015416D01*
X010612Y015166D01*
X010612Y014666D01*
X010362Y014416D01*
X010612Y014166D01*
X010612Y013666D01*
X010362Y013416D01*
X008612Y013666D02*
X008612Y014166D01*
X008362Y014416D01*
X008612Y014666D01*
X008612Y015166D01*
X008362Y015416D01*
X008612Y015666D01*
X008612Y016166D01*
X008362Y016416D01*
X008612Y016666D01*
X008612Y017166D01*
X008362Y017416D01*
X008612Y017666D01*
X008612Y018166D01*
X008362Y018416D01*
X008612Y018666D01*
X008612Y019166D01*
X008362Y019416D01*
X008612Y019666D01*
X008612Y020166D01*
X008362Y020416D01*
X007862Y020416D01*
X007612Y020166D01*
X007612Y019666D01*
X007862Y019416D01*
X007612Y019166D01*
X007612Y018666D01*
X007862Y018416D01*
X007612Y018166D01*
X007612Y017666D01*
X007862Y017416D01*
X007612Y017166D01*
X007612Y016666D01*
X007862Y016416D01*
X007612Y016166D01*
X007612Y015666D01*
X007862Y015416D01*
X007612Y015166D01*
X007612Y014666D01*
X007862Y014416D01*
X007612Y014166D01*
X007612Y013666D01*
X007862Y013416D01*
X008362Y013416D01*
X008612Y013666D01*
X018751Y009095D02*
X019172Y009095D01*
X018751Y008815D01*
X019172Y008815D01*
X019172Y008635D02*
X019032Y008495D01*
X019032Y008565D02*
X019032Y008355D01*
X019172Y008355D02*
X018751Y008355D01*
X018751Y008565D01*
X018822Y008635D01*
X018962Y008635D01*
X019032Y008565D01*
X019102Y008175D02*
X018962Y008175D01*
X018962Y008035D01*
X019102Y008175D02*
X019172Y008105D01*
X019172Y007964D01*
X019102Y007894D01*
X018822Y007894D01*
X018751Y007964D01*
X018751Y008105D01*
X018822Y008175D01*
X020862Y011416D02*
X020612Y011666D01*
X020612Y012166D01*
X020862Y012416D01*
X020612Y012666D01*
X020612Y013166D01*
X020862Y013416D01*
X021362Y013416D01*
X021612Y013166D01*
X021862Y013416D01*
X021612Y013666D01*
X021612Y014166D01*
X021862Y014416D01*
X021612Y014666D01*
X021612Y015166D01*
X021862Y015416D01*
X021612Y015666D01*
X021612Y016166D01*
X021862Y016416D01*
X021612Y016666D01*
X021612Y017166D01*
X021862Y017416D01*
X021612Y017666D01*
X021612Y018166D01*
X021862Y018416D01*
X021612Y018666D01*
X021612Y019166D01*
X021862Y019416D01*
X021612Y019666D01*
X021612Y020166D01*
X021862Y020416D01*
X022362Y020416D01*
X022612Y020166D01*
X022862Y020416D01*
X023362Y020416D01*
X023612Y020166D01*
X023612Y019666D01*
X023362Y019416D01*
X023612Y019166D01*
X023612Y018666D01*
X023362Y018416D01*
X023612Y018166D01*
X023612Y017666D01*
X023362Y017416D01*
X023612Y017166D01*
X023612Y016666D01*
X023362Y016416D01*
X023612Y016166D01*
X023612Y015666D01*
X023362Y015416D01*
X023612Y015166D01*
X023612Y014666D01*
X023362Y014416D01*
X023612Y014166D01*
X023612Y013666D01*
X023362Y013416D01*
X023612Y013166D01*
X023612Y012666D01*
X023362Y012416D01*
X023612Y012166D01*
X023612Y011666D01*
X023362Y011416D01*
X022862Y011416D01*
X022612Y011666D01*
X022612Y012166D01*
X022862Y012416D01*
X022612Y012666D01*
X022612Y013166D01*
X022862Y013416D01*
X022612Y013666D01*
X022612Y014166D01*
X022862Y014416D01*
X022612Y014666D01*
X022612Y015166D01*
X022862Y015416D01*
X022612Y015666D01*
X022612Y016166D01*
X022862Y016416D01*
X022612Y016666D01*
X022612Y017166D01*
X022862Y017416D01*
X022612Y017666D01*
X022612Y018166D01*
X022862Y018416D01*
X022612Y018666D01*
X022612Y019166D01*
X022862Y019416D01*
X022612Y019666D01*
X022612Y020166D01*
X022612Y019666D01*
X022362Y019416D01*
X022612Y019166D01*
X022612Y018666D01*
X022362Y018416D01*
X022612Y018166D01*
X022612Y017666D01*
X022362Y017416D01*
X022612Y017166D01*
X022612Y016666D01*
X022362Y016416D01*
X022612Y016166D01*
X022612Y015666D01*
X022362Y015416D01*
X022612Y015166D01*
X022612Y014666D01*
X022362Y014416D01*
X022612Y014166D01*
X022612Y013666D01*
X022362Y013416D01*
X022612Y013166D01*
X022612Y012666D01*
X022362Y012416D01*
X022612Y012166D01*
X022612Y011666D01*
X022362Y011416D01*
X021862Y011416D01*
X021612Y011666D01*
X021612Y012166D01*
X021862Y012416D01*
X021612Y012666D01*
X021612Y013166D01*
X021612Y012666D01*
X021362Y012416D01*
X021612Y012166D01*
X021612Y011666D01*
X021362Y011416D01*
X020862Y011416D01*
X020862Y013416D02*
X021362Y013416D01*
X021612Y013666D01*
X021612Y014166D01*
X021362Y014416D01*
X021612Y014666D01*
X021612Y015166D01*
X021362Y015416D01*
X021612Y015666D01*
X021612Y016166D01*
X021362Y016416D01*
X021612Y016666D01*
X021612Y017166D01*
X021362Y017416D01*
X021612Y017666D01*
X021612Y018166D01*
X021362Y018416D01*
X021612Y018666D01*
X021612Y019166D01*
X021362Y019416D01*
X021612Y019666D01*
X021612Y020166D01*
X021362Y020416D01*
X020862Y020416D01*
X020612Y020166D01*
X020612Y019666D01*
X020862Y019416D01*
X020612Y019166D01*
X020612Y018666D01*
X020862Y018416D01*
X020612Y018166D01*
X020612Y017666D01*
X020862Y017416D01*
X020612Y017166D01*
X020612Y016666D01*
X020862Y016416D01*
X020612Y016166D01*
X020612Y015666D01*
X020862Y015416D01*
X020612Y015166D01*
X020612Y014666D01*
X020862Y014416D01*
X020612Y014166D01*
X020612Y013666D01*
X020862Y013416D01*
D11*
X018481Y014571D02*
X018481Y021321D01*
X018481Y024321D01*
X012856Y024321D01*
X012856Y021321D01*
X012856Y014571D01*
X018481Y014571D01*
X018612Y009386D02*
X018612Y008386D01*
X012612Y008386D01*
X012612Y009386D01*
X018612Y009386D01*
X018377Y008261D02*
X018422Y008216D01*
X018422Y008126D01*
X018377Y008081D01*
X018242Y008081D01*
X018332Y008081D02*
X018422Y007991D01*
X018242Y007991D02*
X018242Y008261D01*
X018377Y008261D01*
X018128Y008261D02*
X017948Y008261D01*
X018038Y008261D02*
X018038Y007991D01*
X017833Y008036D02*
X017833Y008216D01*
X017788Y008261D01*
X017653Y008261D01*
X017653Y007991D01*
X017788Y007991D01*
X017833Y008036D01*
X017422Y008036D02*
X017377Y007991D01*
X017287Y007991D01*
X017242Y008036D01*
X017242Y008216D01*
X017287Y008261D01*
X017377Y008261D01*
X017422Y008216D01*
X017422Y008036D01*
X017128Y007991D02*
X016948Y008261D01*
X016833Y008261D02*
X016653Y008261D01*
X016743Y008261D02*
X016743Y007991D01*
X016948Y007991D02*
X017128Y008261D01*
X016430Y008261D02*
X016340Y008261D01*
X016385Y008261D02*
X016385Y007991D01*
X016340Y007991D02*
X016430Y007991D01*
X016226Y007991D02*
X016046Y008261D01*
X015931Y008216D02*
X015931Y008126D01*
X015886Y008081D01*
X015751Y008081D01*
X015841Y008081D02*
X015931Y007991D01*
X016046Y007991D02*
X016226Y008261D01*
X015931Y008216D02*
X015886Y008261D01*
X015751Y008261D01*
X015751Y007991D01*
X015422Y008036D02*
X015377Y007991D01*
X015287Y007991D01*
X015242Y008036D01*
X015242Y008216D01*
X015287Y008261D01*
X015377Y008261D01*
X015422Y008216D01*
X015128Y008216D02*
X015083Y008261D01*
X014993Y008261D01*
X014948Y008216D01*
X014948Y008036D01*
X014993Y007991D01*
X015083Y007991D01*
X015128Y008036D01*
X014833Y008081D02*
X014833Y008261D01*
X014653Y008261D02*
X014653Y008081D01*
X014743Y007991D01*
X014833Y008081D01*
X014422Y008081D02*
X014422Y008036D01*
X014377Y007991D01*
X014287Y007991D01*
X014242Y008036D01*
X014287Y008126D02*
X014377Y008126D01*
X014422Y008081D01*
X014422Y008216D02*
X014377Y008261D01*
X014287Y008261D01*
X014242Y008216D01*
X014242Y008171D01*
X014287Y008126D01*
X014128Y008261D02*
X013948Y008261D01*
X014038Y008261D02*
X014038Y007991D01*
X013833Y008036D02*
X013788Y007991D01*
X013698Y007991D01*
X013653Y008036D01*
X013653Y008216D01*
X013698Y008261D01*
X013788Y008261D01*
X013833Y008216D01*
X013422Y008216D02*
X013377Y008261D01*
X013242Y008261D01*
X013242Y007991D01*
X013377Y007991D01*
X013422Y008036D01*
X013422Y008216D01*
X013128Y008261D02*
X013128Y007991D01*
X012948Y008261D01*
X012948Y007991D01*
X012833Y008036D02*
X012788Y007991D01*
X012698Y007991D01*
X012653Y008036D01*
X012653Y008216D01*
X012698Y008261D01*
X012788Y008261D01*
X012833Y008216D01*
X012833Y008126D02*
X012743Y008126D01*
X012833Y008126D02*
X012833Y008036D01*
D12*
X006862Y006416D02*
X006612Y006666D01*
X006612Y007166D01*
X006862Y007416D01*
X006612Y007666D01*
X006612Y008166D01*
X006862Y008416D01*
X006612Y008666D01*
X006612Y009166D01*
X006862Y009416D01*
X007362Y009416D01*
X007612Y009166D01*
X007612Y008666D01*
X007362Y008416D01*
X007612Y008166D01*
X007612Y007666D01*
X007362Y007416D01*
X007612Y007166D01*
X007612Y006666D01*
X007362Y006416D01*
X006862Y006416D01*
X006862Y007416D02*
X007362Y007416D01*
X007362Y008416D02*
X006862Y008416D01*
X019312Y008466D02*
X019312Y008066D01*
X019312Y008466D02*
X019312Y009416D01*
X019312Y009766D01*
X020112Y010116D02*
X020212Y010116D01*
X020212Y010216D01*
X020812Y010216D01*
X020812Y010116D01*
X020912Y010116D01*
X021712Y009766D02*
X021712Y009416D01*
X021712Y008416D01*
X021712Y008066D01*
X021912Y008066D02*
X021912Y008416D01*
X021912Y009416D01*
X021912Y009766D01*
X022712Y010116D02*
X022812Y010116D01*
X022812Y010216D01*
X023412Y010216D01*
X023412Y010116D01*
X023512Y010116D01*
X024312Y009766D02*
X024312Y009366D01*
X024312Y008416D01*
X024312Y008066D01*
X023512Y007716D02*
X023412Y007716D01*
X023412Y007616D01*
X022812Y007616D01*
X022812Y007716D01*
X022712Y007716D01*
X023012Y008916D02*
X023014Y008936D01*
X023020Y008954D01*
X023029Y008972D01*
X023041Y008987D01*
X023056Y008999D01*
X023074Y009008D01*
X023092Y009014D01*
X023112Y009016D01*
X023132Y009014D01*
X023150Y009008D01*
X023168Y008999D01*
X023183Y008987D01*
X023195Y008972D01*
X023204Y008954D01*
X023210Y008936D01*
X023212Y008916D01*
X023210Y008896D01*
X023204Y008878D01*
X023195Y008860D01*
X023183Y008845D01*
X023168Y008833D01*
X023150Y008824D01*
X023132Y008818D01*
X023112Y008816D01*
X023092Y008818D01*
X023074Y008824D01*
X023056Y008833D01*
X023041Y008845D01*
X023029Y008860D01*
X023020Y008878D01*
X023014Y008896D01*
X023012Y008916D01*
X022412Y008916D02*
X022414Y008968D01*
X022420Y009020D01*
X022430Y009072D01*
X022443Y009122D01*
X022460Y009172D01*
X022481Y009220D01*
X022506Y009266D01*
X022534Y009310D01*
X022565Y009352D01*
X022599Y009392D01*
X022636Y009429D01*
X022676Y009463D01*
X022718Y009494D01*
X022762Y009522D01*
X022808Y009547D01*
X022856Y009568D01*
X022906Y009585D01*
X022956Y009598D01*
X023008Y009608D01*
X023060Y009614D01*
X023112Y009616D01*
X023164Y009614D01*
X023216Y009608D01*
X023268Y009598D01*
X023318Y009585D01*
X023368Y009568D01*
X023416Y009547D01*
X023462Y009522D01*
X023506Y009494D01*
X023548Y009463D01*
X023588Y009429D01*
X023625Y009392D01*
X023659Y009352D01*
X023690Y009310D01*
X023718Y009266D01*
X023743Y009220D01*
X023764Y009172D01*
X023781Y009122D01*
X023794Y009072D01*
X023804Y009020D01*
X023810Y008968D01*
X023812Y008916D01*
X023810Y008864D01*
X023804Y008812D01*
X023794Y008760D01*
X023781Y008710D01*
X023764Y008660D01*
X023743Y008612D01*
X023718Y008566D01*
X023690Y008522D01*
X023659Y008480D01*
X023625Y008440D01*
X023588Y008403D01*
X023548Y008369D01*
X023506Y008338D01*
X023462Y008310D01*
X023416Y008285D01*
X023368Y008264D01*
X023318Y008247D01*
X023268Y008234D01*
X023216Y008224D01*
X023164Y008218D01*
X023112Y008216D01*
X023060Y008218D01*
X023008Y008224D01*
X022956Y008234D01*
X022906Y008247D01*
X022856Y008264D01*
X022808Y008285D01*
X022762Y008310D01*
X022718Y008338D01*
X022676Y008369D01*
X022636Y008403D01*
X022599Y008440D01*
X022565Y008480D01*
X022534Y008522D01*
X022506Y008566D01*
X022481Y008612D01*
X022460Y008660D01*
X022443Y008710D01*
X022430Y008760D01*
X022420Y008812D01*
X022414Y008864D01*
X022412Y008916D01*
X020912Y007716D02*
X020812Y007716D01*
X020812Y007616D01*
X020212Y007616D01*
X020212Y007716D01*
X020112Y007716D01*
X020412Y008916D02*
X020414Y008936D01*
X020420Y008954D01*
X020429Y008972D01*
X020441Y008987D01*
X020456Y008999D01*
X020474Y009008D01*
X020492Y009014D01*
X020512Y009016D01*
X020532Y009014D01*
X020550Y009008D01*
X020568Y008999D01*
X020583Y008987D01*
X020595Y008972D01*
X020604Y008954D01*
X020610Y008936D01*
X020612Y008916D01*
X020610Y008896D01*
X020604Y008878D01*
X020595Y008860D01*
X020583Y008845D01*
X020568Y008833D01*
X020550Y008824D01*
X020532Y008818D01*
X020512Y008816D01*
X020492Y008818D01*
X020474Y008824D01*
X020456Y008833D01*
X020441Y008845D01*
X020429Y008860D01*
X020420Y008878D01*
X020414Y008896D01*
X020412Y008916D01*
X019812Y008916D02*
X019814Y008968D01*
X019820Y009020D01*
X019830Y009072D01*
X019843Y009122D01*
X019860Y009172D01*
X019881Y009220D01*
X019906Y009266D01*
X019934Y009310D01*
X019965Y009352D01*
X019999Y009392D01*
X020036Y009429D01*
X020076Y009463D01*
X020118Y009494D01*
X020162Y009522D01*
X020208Y009547D01*
X020256Y009568D01*
X020306Y009585D01*
X020356Y009598D01*
X020408Y009608D01*
X020460Y009614D01*
X020512Y009616D01*
X020564Y009614D01*
X020616Y009608D01*
X020668Y009598D01*
X020718Y009585D01*
X020768Y009568D01*
X020816Y009547D01*
X020862Y009522D01*
X020906Y009494D01*
X020948Y009463D01*
X020988Y009429D01*
X021025Y009392D01*
X021059Y009352D01*
X021090Y009310D01*
X021118Y009266D01*
X021143Y009220D01*
X021164Y009172D01*
X021181Y009122D01*
X021194Y009072D01*
X021204Y009020D01*
X021210Y008968D01*
X021212Y008916D01*
X021210Y008864D01*
X021204Y008812D01*
X021194Y008760D01*
X021181Y008710D01*
X021164Y008660D01*
X021143Y008612D01*
X021118Y008566D01*
X021090Y008522D01*
X021059Y008480D01*
X021025Y008440D01*
X020988Y008403D01*
X020948Y008369D01*
X020906Y008338D01*
X020862Y008310D01*
X020816Y008285D01*
X020768Y008264D01*
X020718Y008247D01*
X020668Y008234D01*
X020616Y008224D01*
X020564Y008218D01*
X020512Y008216D01*
X020460Y008218D01*
X020408Y008224D01*
X020356Y008234D01*
X020306Y008247D01*
X020256Y008264D01*
X020208Y008285D01*
X020162Y008310D01*
X020118Y008338D01*
X020076Y008369D01*
X020036Y008403D01*
X019999Y008440D01*
X019965Y008480D01*
X019934Y008522D01*
X019906Y008566D01*
X019881Y008612D01*
X019860Y008660D01*
X019843Y008710D01*
X019830Y008760D01*
X019820Y008812D01*
X019814Y008864D01*
X019812Y008916D01*
D13*
X019412Y008466D02*
X019312Y008466D01*
X019412Y008466D02*
X019412Y009416D01*
X019312Y009416D01*
X021612Y009416D02*
X021612Y008416D01*
X021712Y008416D01*
X021912Y008416D02*
X022012Y008416D01*
X022012Y009416D01*
X021912Y009416D01*
X021712Y009416D02*
X021612Y009416D01*
X024212Y009366D02*
X024212Y008416D01*
X024312Y008416D01*
X024312Y009366D02*
X024212Y009366D01*
D14*
X022309Y021699D02*
X022332Y021722D01*
X022352Y021748D01*
X022369Y021776D01*
X022383Y021805D01*
X022394Y021836D01*
X022401Y021867D01*
X022405Y021900D01*
X022405Y021932D01*
X022401Y021965D01*
X022394Y021996D01*
X022383Y022027D01*
X022369Y022056D01*
X022352Y022084D01*
X022332Y022110D01*
X022309Y022133D01*
X021915Y022133D02*
X021892Y022110D01*
X021872Y022084D01*
X021855Y022056D01*
X021841Y022027D01*
X021830Y021996D01*
X021823Y021965D01*
X021819Y021932D01*
X021819Y021900D01*
X021823Y021867D01*
X021830Y021836D01*
X021841Y021805D01*
X021855Y021776D01*
X021872Y021748D01*
X021892Y021722D01*
X021915Y021699D01*
D15*
X022112Y021916D03*
D16*
X021885Y021709D03*
D17*
X017817Y022691D02*
X016242Y022691D01*
X016242Y021813D01*
X015809Y021813D01*
X015809Y022691D01*
X015376Y022691D01*
X015376Y021774D01*
X014903Y021774D01*
X014903Y022691D01*
X014431Y022691D01*
X014431Y021774D01*
X014037Y021774D01*
X014037Y022731D01*
X013683Y022731D01*
X013683Y021301D01*
X013683Y021262D02*
X013683Y021026D01*
X016242Y021026D01*
D18*
X016793Y005547D02*
X017187Y005547D01*
X017187Y005153D01*
X017187Y003972D02*
X017187Y003578D01*
X014431Y005547D02*
X014037Y005547D01*
X014040Y005540D02*
X014040Y005153D01*
X014037Y005153D01*
X014037Y003972D02*
X014037Y003578D01*
M02*
