%
M48
M72
T01C0.0236
T02C0.0276
T03C0.0315
T04C0.0335
T05C0.0400
T06C0.1260
%
T01
X7612Y10416
X7612Y11416
X7212Y12516
X10912Y13216
X11312Y12216
X12112Y12416
X12012Y11616
X11412Y11516
X11112Y10416
X14012Y12716
X14812Y11416
X16312Y12016
X16512Y10466
X15662Y9516
X14512Y9516
X14612Y7416
X13612Y7416
X12612Y7416
X12612Y6416
X15612Y6416
X16612Y6416
X17612Y6416
X18562Y5416
X18662Y4216
X20912Y6966
X21862Y6716
X22262Y6166
X23612Y6666
X22312Y9016
X21812Y9016
X20362Y11316
X20212Y12416
X19212Y12916
X18812Y13366
X19212Y11916
X18262Y11916
X18362Y11216
X17662Y10066
X18712Y9916
X18962Y9516
X18162Y7716
X18912Y7466
X23962Y11266
X20362Y13366
X16612Y14716
X17712Y17116
X17662Y18366
X16412Y18716
X16312Y19616
X15112Y18766
X14462Y19216
X14862Y19716
X13612Y18016
X14112Y17616
X14112Y16916
X13212Y17416
X11562Y19066
X15112Y17116
X16112Y17716
X11712Y14716
T02
X12817Y14687
X12817Y15475
X12817Y16262
X12817Y17049
X12817Y17837
X12817Y18624
X12817Y19412
X12817Y20199
X18328Y20199
X18328Y19412
X18328Y18624
X18328Y17837
X18328Y17049
X18328Y16262
X18328Y15475
X18328Y14687
X17590Y14120
X16803Y14120
X16015Y14120
X15228Y14120
X14441Y14120
X13653Y14120
T03
X14106Y15196
X15106Y15196
X16106Y15196
X17106Y15196
X17106Y16196
X16106Y16196
X15106Y16196
X14106Y16196
T04
X14864Y5232
X16360Y5232
T05
X19622Y7636
X18112Y8886
X17112Y8886
X16112Y8886
X15112Y8886
X14112Y8886
X13112Y8886
X10112Y9916
X9112Y9916
X8112Y9916
X8112Y10916
X9112Y10916
X10112Y10916
X10112Y11916
X10112Y12916
X9112Y12916
X8112Y12916
X8112Y11916
X9112Y11916
X9112Y13916
X9112Y14916
X10112Y14916
X10112Y13916
X8112Y13916
X8112Y14916
X8112Y15916
X9112Y15916
X10112Y15916
X10112Y16916
X10112Y17916
X9112Y17916
X8112Y17916
X8112Y16916
X9112Y16916
X9112Y18916
X9112Y19916
X10112Y19916
X10112Y18916
X8112Y18916
X8112Y19916
X7112Y8916
X7112Y7916
X7112Y6916
X19622Y10196
X21402Y10196
X22222Y10196
X24002Y10196
X23112Y11916
X23112Y12916
X22112Y12916
X22112Y11916
X21112Y11916
X21112Y12916
X21112Y13916
X21112Y14916
X21112Y15916
X21112Y16916
X21112Y17916
X21112Y18916
X21112Y19916
X22112Y19916
X23112Y19916
X23112Y18916
X22112Y18916
X22112Y17916
X23112Y17916
X23112Y16916
X22112Y16916
X22112Y15916
X23112Y15916
X23112Y14916
X22112Y14916
X22112Y13916
X23112Y13916
X24002Y7636
X22222Y7636
X21402Y7636
T06
X7187Y4990
X23722Y4990
X23722Y21526
X7187Y21526
M30
