G75*
%MOIN*%
%OFA0B0*%
%FSLAX24Y24*%
%IPPOS*%
%LPD*%
%AMOC8*
5,1,8,0,0,1.08239X$1,22.5*
%
%ADD10R,0.0787X0.0591*%
%ADD11R,0.0787X0.1496*%
%ADD12R,0.0630X0.0709*%
%ADD13R,0.0740X0.0740*%
%ADD14C,0.0740*%
%ADD15C,0.0600*%
%ADD16R,0.0630X0.0787*%
%ADD17R,0.0472X0.0472*%
%ADD18C,0.0472*%
%ADD19R,0.0787X0.0630*%
%ADD20R,0.0710X0.0630*%
%ADD21C,0.0416*%
%ADD22C,0.0000*%
%ADD23C,0.0700*%
%ADD24R,0.0157X0.0551*%
%ADD25R,0.0709X0.0591*%
%ADD26R,0.0984X0.0591*%
%ADD27C,0.0160*%
%ADD28C,0.0320*%
%ADD29C,0.0376*%
D10*
X009322Y005660D03*
X009322Y006566D03*
X009322Y007471D03*
D11*
X011802Y006566D03*
D12*
X010613Y004666D03*
X009511Y004666D03*
X009511Y008566D03*
X010613Y008566D03*
X011661Y013416D03*
X012763Y013416D03*
D13*
X018112Y008886D03*
D14*
X017112Y008886D03*
X016112Y008886D03*
X015112Y008886D03*
X014112Y008886D03*
X013112Y008886D03*
X010112Y013916D03*
X010112Y014916D03*
X009112Y014916D03*
X008112Y014916D03*
X008112Y013916D03*
X009112Y013916D03*
X009112Y015916D03*
X010112Y015916D03*
X010112Y016916D03*
X010112Y017916D03*
X009112Y017916D03*
X008112Y017916D03*
X008112Y016916D03*
X009112Y016916D03*
X008112Y015916D03*
X008112Y018916D03*
X008112Y019916D03*
X009112Y019916D03*
X010112Y019916D03*
X010112Y018916D03*
X009112Y018916D03*
X021112Y018916D03*
X021112Y019916D03*
X022112Y019916D03*
X023112Y019916D03*
X023112Y018916D03*
X022112Y018916D03*
X022112Y017916D03*
X023112Y017916D03*
X023112Y016916D03*
X022112Y016916D03*
X021112Y016916D03*
X021112Y017916D03*
X021112Y015916D03*
X022112Y015916D03*
X023112Y015916D03*
X023112Y014916D03*
X022112Y014916D03*
X022112Y013916D03*
X023112Y013916D03*
X023112Y012916D03*
X022112Y012916D03*
X022112Y011916D03*
X023112Y011916D03*
X021112Y011916D03*
X021112Y012916D03*
X021112Y013916D03*
X021112Y014916D03*
D15*
X021402Y010496D02*
X021402Y009896D01*
X022222Y009896D02*
X022222Y010496D01*
X024002Y010496D02*
X024002Y009896D01*
X024002Y007936D02*
X024002Y007336D01*
X022222Y007336D02*
X022222Y007936D01*
X021402Y007936D02*
X021402Y007336D01*
X019622Y007336D02*
X019622Y007936D01*
X019622Y009896D02*
X019622Y010496D01*
X007412Y008916D02*
X006812Y008916D01*
X006812Y007916D02*
X007412Y007916D01*
X007412Y006916D02*
X006812Y006916D01*
D16*
X019961Y005616D03*
X019979Y004603D03*
X021081Y004603D03*
X021063Y005616D03*
D17*
X017106Y016196D03*
X014106Y016196D03*
D18*
X014106Y015196D03*
X015106Y015196D03*
X016106Y015196D03*
X017106Y015196D03*
X016106Y016196D03*
X015106Y016196D03*
D19*
X015612Y011967D03*
X015612Y010864D03*
X013612Y010864D03*
X013612Y011967D03*
X017612Y011967D03*
X017612Y010864D03*
X020612Y021364D03*
X020612Y022467D03*
X010612Y022467D03*
X010612Y021364D03*
X009112Y021364D03*
X009112Y022467D03*
D20*
X022112Y022475D03*
X022112Y021356D03*
D21*
X018744Y020199D02*
X018328Y020199D01*
X018328Y019412D02*
X018744Y019412D01*
X018744Y018624D02*
X018328Y018624D01*
X018328Y017837D02*
X018744Y017837D01*
X018744Y017049D02*
X018328Y017049D01*
X018328Y016262D02*
X018744Y016262D01*
X018744Y015475D02*
X018328Y015475D01*
X018328Y014687D02*
X018744Y014687D01*
X017590Y014120D02*
X017590Y013705D01*
X016803Y013705D02*
X016803Y014120D01*
X016015Y014120D02*
X016015Y013705D01*
X015228Y013705D02*
X015228Y014120D01*
X014441Y014120D02*
X014441Y013705D01*
X013653Y013705D02*
X013653Y014120D01*
X012817Y014687D02*
X012401Y014687D01*
X012401Y015475D02*
X012817Y015475D01*
X012817Y016262D02*
X012401Y016262D01*
X012401Y017049D02*
X012817Y017049D01*
X012817Y017837D02*
X012401Y017837D01*
X012401Y018624D02*
X012817Y018624D01*
X012817Y019412D02*
X012401Y019412D01*
X012401Y020199D02*
X012817Y020199D01*
D22*
X005612Y021526D02*
X005612Y004990D01*
X006557Y004990D02*
X006559Y005040D01*
X006565Y005090D01*
X006575Y005139D01*
X006589Y005187D01*
X006606Y005234D01*
X006627Y005279D01*
X006652Y005323D01*
X006680Y005364D01*
X006712Y005403D01*
X006746Y005440D01*
X006783Y005474D01*
X006823Y005504D01*
X006865Y005531D01*
X006909Y005555D01*
X006955Y005576D01*
X007002Y005592D01*
X007050Y005605D01*
X007100Y005614D01*
X007149Y005619D01*
X007200Y005620D01*
X007250Y005617D01*
X007299Y005610D01*
X007348Y005599D01*
X007396Y005584D01*
X007442Y005566D01*
X007487Y005544D01*
X007530Y005518D01*
X007571Y005489D01*
X007610Y005457D01*
X007646Y005422D01*
X007678Y005384D01*
X007708Y005344D01*
X007735Y005301D01*
X007758Y005257D01*
X007777Y005211D01*
X007793Y005163D01*
X007805Y005114D01*
X007813Y005065D01*
X007817Y005015D01*
X007817Y004965D01*
X007813Y004915D01*
X007805Y004866D01*
X007793Y004817D01*
X007777Y004769D01*
X007758Y004723D01*
X007735Y004679D01*
X007708Y004636D01*
X007678Y004596D01*
X007646Y004558D01*
X007610Y004523D01*
X007571Y004491D01*
X007530Y004462D01*
X007487Y004436D01*
X007442Y004414D01*
X007396Y004396D01*
X007348Y004381D01*
X007299Y004370D01*
X007250Y004363D01*
X007200Y004360D01*
X007149Y004361D01*
X007100Y004366D01*
X007050Y004375D01*
X007002Y004388D01*
X006955Y004404D01*
X006909Y004425D01*
X006865Y004449D01*
X006823Y004476D01*
X006783Y004506D01*
X006746Y004540D01*
X006712Y004577D01*
X006680Y004616D01*
X006652Y004657D01*
X006627Y004701D01*
X006606Y004746D01*
X006589Y004793D01*
X006575Y004841D01*
X006565Y004890D01*
X006559Y004940D01*
X006557Y004990D01*
X005612Y004990D02*
X005614Y004913D01*
X005620Y004836D01*
X005629Y004759D01*
X005642Y004683D01*
X005659Y004607D01*
X005680Y004533D01*
X005704Y004459D01*
X005732Y004387D01*
X005763Y004317D01*
X005798Y004248D01*
X005836Y004180D01*
X005877Y004115D01*
X005922Y004052D01*
X005970Y003991D01*
X006020Y003932D01*
X006073Y003876D01*
X006129Y003823D01*
X006188Y003773D01*
X006249Y003725D01*
X006312Y003680D01*
X006377Y003639D01*
X006445Y003601D01*
X006514Y003566D01*
X006584Y003535D01*
X006656Y003507D01*
X006730Y003483D01*
X006804Y003462D01*
X006880Y003445D01*
X006956Y003432D01*
X007033Y003423D01*
X007110Y003417D01*
X007187Y003415D01*
X007187Y003416D02*
X023722Y003416D01*
X023092Y004990D02*
X023094Y005040D01*
X023100Y005090D01*
X023110Y005139D01*
X023124Y005187D01*
X023141Y005234D01*
X023162Y005279D01*
X023187Y005323D01*
X023215Y005364D01*
X023247Y005403D01*
X023281Y005440D01*
X023318Y005474D01*
X023358Y005504D01*
X023400Y005531D01*
X023444Y005555D01*
X023490Y005576D01*
X023537Y005592D01*
X023585Y005605D01*
X023635Y005614D01*
X023684Y005619D01*
X023735Y005620D01*
X023785Y005617D01*
X023834Y005610D01*
X023883Y005599D01*
X023931Y005584D01*
X023977Y005566D01*
X024022Y005544D01*
X024065Y005518D01*
X024106Y005489D01*
X024145Y005457D01*
X024181Y005422D01*
X024213Y005384D01*
X024243Y005344D01*
X024270Y005301D01*
X024293Y005257D01*
X024312Y005211D01*
X024328Y005163D01*
X024340Y005114D01*
X024348Y005065D01*
X024352Y005015D01*
X024352Y004965D01*
X024348Y004915D01*
X024340Y004866D01*
X024328Y004817D01*
X024312Y004769D01*
X024293Y004723D01*
X024270Y004679D01*
X024243Y004636D01*
X024213Y004596D01*
X024181Y004558D01*
X024145Y004523D01*
X024106Y004491D01*
X024065Y004462D01*
X024022Y004436D01*
X023977Y004414D01*
X023931Y004396D01*
X023883Y004381D01*
X023834Y004370D01*
X023785Y004363D01*
X023735Y004360D01*
X023684Y004361D01*
X023635Y004366D01*
X023585Y004375D01*
X023537Y004388D01*
X023490Y004404D01*
X023444Y004425D01*
X023400Y004449D01*
X023358Y004476D01*
X023318Y004506D01*
X023281Y004540D01*
X023247Y004577D01*
X023215Y004616D01*
X023187Y004657D01*
X023162Y004701D01*
X023141Y004746D01*
X023124Y004793D01*
X023110Y004841D01*
X023100Y004890D01*
X023094Y004940D01*
X023092Y004990D01*
X023722Y003415D02*
X023799Y003417D01*
X023876Y003423D01*
X023953Y003432D01*
X024029Y003445D01*
X024105Y003462D01*
X024179Y003483D01*
X024253Y003507D01*
X024325Y003535D01*
X024395Y003566D01*
X024464Y003601D01*
X024532Y003639D01*
X024597Y003680D01*
X024660Y003725D01*
X024721Y003773D01*
X024780Y003823D01*
X024836Y003876D01*
X024889Y003932D01*
X024939Y003991D01*
X024987Y004052D01*
X025032Y004115D01*
X025073Y004180D01*
X025111Y004248D01*
X025146Y004317D01*
X025177Y004387D01*
X025205Y004459D01*
X025229Y004533D01*
X025250Y004607D01*
X025267Y004683D01*
X025280Y004759D01*
X025289Y004836D01*
X025295Y004913D01*
X025297Y004990D01*
X025297Y021526D01*
X023092Y021526D02*
X023094Y021576D01*
X023100Y021626D01*
X023110Y021675D01*
X023124Y021723D01*
X023141Y021770D01*
X023162Y021815D01*
X023187Y021859D01*
X023215Y021900D01*
X023247Y021939D01*
X023281Y021976D01*
X023318Y022010D01*
X023358Y022040D01*
X023400Y022067D01*
X023444Y022091D01*
X023490Y022112D01*
X023537Y022128D01*
X023585Y022141D01*
X023635Y022150D01*
X023684Y022155D01*
X023735Y022156D01*
X023785Y022153D01*
X023834Y022146D01*
X023883Y022135D01*
X023931Y022120D01*
X023977Y022102D01*
X024022Y022080D01*
X024065Y022054D01*
X024106Y022025D01*
X024145Y021993D01*
X024181Y021958D01*
X024213Y021920D01*
X024243Y021880D01*
X024270Y021837D01*
X024293Y021793D01*
X024312Y021747D01*
X024328Y021699D01*
X024340Y021650D01*
X024348Y021601D01*
X024352Y021551D01*
X024352Y021501D01*
X024348Y021451D01*
X024340Y021402D01*
X024328Y021353D01*
X024312Y021305D01*
X024293Y021259D01*
X024270Y021215D01*
X024243Y021172D01*
X024213Y021132D01*
X024181Y021094D01*
X024145Y021059D01*
X024106Y021027D01*
X024065Y020998D01*
X024022Y020972D01*
X023977Y020950D01*
X023931Y020932D01*
X023883Y020917D01*
X023834Y020906D01*
X023785Y020899D01*
X023735Y020896D01*
X023684Y020897D01*
X023635Y020902D01*
X023585Y020911D01*
X023537Y020924D01*
X023490Y020940D01*
X023444Y020961D01*
X023400Y020985D01*
X023358Y021012D01*
X023318Y021042D01*
X023281Y021076D01*
X023247Y021113D01*
X023215Y021152D01*
X023187Y021193D01*
X023162Y021237D01*
X023141Y021282D01*
X023124Y021329D01*
X023110Y021377D01*
X023100Y021426D01*
X023094Y021476D01*
X023092Y021526D01*
X023722Y023101D02*
X023799Y023099D01*
X023876Y023093D01*
X023953Y023084D01*
X024029Y023071D01*
X024105Y023054D01*
X024179Y023033D01*
X024253Y023009D01*
X024325Y022981D01*
X024395Y022950D01*
X024464Y022915D01*
X024532Y022877D01*
X024597Y022836D01*
X024660Y022791D01*
X024721Y022743D01*
X024780Y022693D01*
X024836Y022640D01*
X024889Y022584D01*
X024939Y022525D01*
X024987Y022464D01*
X025032Y022401D01*
X025073Y022336D01*
X025111Y022268D01*
X025146Y022199D01*
X025177Y022129D01*
X025205Y022057D01*
X025229Y021983D01*
X025250Y021909D01*
X025267Y021833D01*
X025280Y021757D01*
X025289Y021680D01*
X025295Y021603D01*
X025297Y021526D01*
X023722Y023101D02*
X007187Y023101D01*
X006557Y021526D02*
X006559Y021576D01*
X006565Y021626D01*
X006575Y021675D01*
X006589Y021723D01*
X006606Y021770D01*
X006627Y021815D01*
X006652Y021859D01*
X006680Y021900D01*
X006712Y021939D01*
X006746Y021976D01*
X006783Y022010D01*
X006823Y022040D01*
X006865Y022067D01*
X006909Y022091D01*
X006955Y022112D01*
X007002Y022128D01*
X007050Y022141D01*
X007100Y022150D01*
X007149Y022155D01*
X007200Y022156D01*
X007250Y022153D01*
X007299Y022146D01*
X007348Y022135D01*
X007396Y022120D01*
X007442Y022102D01*
X007487Y022080D01*
X007530Y022054D01*
X007571Y022025D01*
X007610Y021993D01*
X007646Y021958D01*
X007678Y021920D01*
X007708Y021880D01*
X007735Y021837D01*
X007758Y021793D01*
X007777Y021747D01*
X007793Y021699D01*
X007805Y021650D01*
X007813Y021601D01*
X007817Y021551D01*
X007817Y021501D01*
X007813Y021451D01*
X007805Y021402D01*
X007793Y021353D01*
X007777Y021305D01*
X007758Y021259D01*
X007735Y021215D01*
X007708Y021172D01*
X007678Y021132D01*
X007646Y021094D01*
X007610Y021059D01*
X007571Y021027D01*
X007530Y020998D01*
X007487Y020972D01*
X007442Y020950D01*
X007396Y020932D01*
X007348Y020917D01*
X007299Y020906D01*
X007250Y020899D01*
X007200Y020896D01*
X007149Y020897D01*
X007100Y020902D01*
X007050Y020911D01*
X007002Y020924D01*
X006955Y020940D01*
X006909Y020961D01*
X006865Y020985D01*
X006823Y021012D01*
X006783Y021042D01*
X006746Y021076D01*
X006712Y021113D01*
X006680Y021152D01*
X006652Y021193D01*
X006627Y021237D01*
X006606Y021282D01*
X006589Y021329D01*
X006575Y021377D01*
X006565Y021426D01*
X006559Y021476D01*
X006557Y021526D01*
X005612Y021526D02*
X005614Y021603D01*
X005620Y021680D01*
X005629Y021757D01*
X005642Y021833D01*
X005659Y021909D01*
X005680Y021983D01*
X005704Y022057D01*
X005732Y022129D01*
X005763Y022199D01*
X005798Y022268D01*
X005836Y022336D01*
X005877Y022401D01*
X005922Y022464D01*
X005970Y022525D01*
X006020Y022584D01*
X006073Y022640D01*
X006129Y022693D01*
X006188Y022743D01*
X006249Y022791D01*
X006312Y022836D01*
X006377Y022877D01*
X006445Y022915D01*
X006514Y022950D01*
X006584Y022981D01*
X006656Y023009D01*
X006730Y023033D01*
X006804Y023054D01*
X006880Y023071D01*
X006956Y023084D01*
X007033Y023093D01*
X007110Y023099D01*
X007187Y023101D01*
X014697Y005232D02*
X014699Y005257D01*
X014705Y005282D01*
X014714Y005306D01*
X014727Y005328D01*
X014744Y005348D01*
X014763Y005365D01*
X014784Y005379D01*
X014808Y005389D01*
X014832Y005396D01*
X014858Y005399D01*
X014883Y005398D01*
X014908Y005393D01*
X014932Y005384D01*
X014955Y005372D01*
X014975Y005357D01*
X014993Y005338D01*
X015008Y005317D01*
X015019Y005294D01*
X015027Y005270D01*
X015031Y005245D01*
X015031Y005219D01*
X015027Y005194D01*
X015019Y005170D01*
X015008Y005147D01*
X014993Y005126D01*
X014975Y005107D01*
X014955Y005092D01*
X014932Y005080D01*
X014908Y005071D01*
X014883Y005066D01*
X014858Y005065D01*
X014832Y005068D01*
X014808Y005075D01*
X014784Y005085D01*
X014763Y005099D01*
X014744Y005116D01*
X014727Y005136D01*
X014714Y005158D01*
X014705Y005182D01*
X014699Y005207D01*
X014697Y005232D01*
X016193Y005232D02*
X016195Y005257D01*
X016201Y005282D01*
X016210Y005306D01*
X016223Y005328D01*
X016240Y005348D01*
X016259Y005365D01*
X016280Y005379D01*
X016304Y005389D01*
X016328Y005396D01*
X016354Y005399D01*
X016379Y005398D01*
X016404Y005393D01*
X016428Y005384D01*
X016451Y005372D01*
X016471Y005357D01*
X016489Y005338D01*
X016504Y005317D01*
X016515Y005294D01*
X016523Y005270D01*
X016527Y005245D01*
X016527Y005219D01*
X016523Y005194D01*
X016515Y005170D01*
X016504Y005147D01*
X016489Y005126D01*
X016471Y005107D01*
X016451Y005092D01*
X016428Y005080D01*
X016404Y005071D01*
X016379Y005066D01*
X016354Y005065D01*
X016328Y005068D01*
X016304Y005075D01*
X016280Y005085D01*
X016259Y005099D01*
X016240Y005116D01*
X016223Y005136D01*
X016210Y005158D01*
X016201Y005182D01*
X016195Y005207D01*
X016193Y005232D01*
D23*
X010112Y009916D03*
X009112Y009916D03*
X008112Y009916D03*
X008112Y010916D03*
X009112Y010916D03*
X010112Y010916D03*
X010112Y011916D03*
X010112Y012916D03*
X009112Y012916D03*
X008112Y012916D03*
X008112Y011916D03*
X009112Y011916D03*
D24*
X015100Y005429D03*
X015356Y005429D03*
X015612Y005429D03*
X015868Y005429D03*
X016124Y005429D03*
D25*
X017069Y004366D03*
X014155Y004366D03*
D26*
X015612Y004366D03*
D27*
X015062Y003930D02*
X016162Y003930D01*
X016244Y004012D01*
X016244Y004719D01*
X016162Y004801D01*
X015062Y004801D01*
X014980Y004719D01*
X014980Y004012D01*
X015062Y003930D01*
X014980Y004050D02*
X014649Y004050D01*
X014649Y004012D02*
X014649Y004719D01*
X014567Y004801D01*
X013743Y004801D01*
X013661Y004719D01*
X013661Y004012D01*
X013743Y003930D01*
X014567Y003930D01*
X014649Y004012D01*
X014649Y004208D02*
X014980Y004208D01*
X014980Y004367D02*
X014649Y004367D01*
X014649Y004525D02*
X014980Y004525D01*
X014980Y004684D02*
X014649Y004684D01*
X014766Y004842D02*
X011068Y004842D01*
X011068Y004866D02*
X012721Y004866D01*
X012832Y004911D01*
X013082Y005161D01*
X013166Y005246D01*
X013212Y005356D01*
X013212Y005741D01*
X013486Y006016D01*
X014388Y006016D01*
X014777Y005626D01*
X014639Y005569D01*
X014527Y005457D01*
X014466Y005311D01*
X014466Y005153D01*
X014527Y005007D01*
X014639Y004895D01*
X014785Y004834D01*
X014943Y004834D01*
X015089Y004895D01*
X015201Y005007D01*
X015203Y005013D01*
X015930Y005013D01*
X015934Y005009D01*
X015975Y004985D01*
X016021Y004973D01*
X016057Y004973D01*
X016135Y004895D01*
X016281Y004834D01*
X016439Y004834D01*
X016585Y004895D01*
X016697Y005007D01*
X016757Y005153D01*
X016757Y005311D01*
X016697Y005457D01*
X016585Y005569D01*
X016439Y005629D01*
X016382Y005629D01*
X016382Y005728D01*
X016370Y005774D01*
X016346Y005815D01*
X016313Y005848D01*
X016272Y005872D01*
X016226Y005884D01*
X016124Y005884D01*
X016124Y005557D01*
X016124Y005884D01*
X016021Y005884D01*
X015975Y005872D01*
X015934Y005848D01*
X015930Y005844D01*
X015320Y005844D01*
X015320Y005869D01*
X015311Y005878D01*
X015266Y005986D01*
X014682Y006570D01*
X014571Y006616D01*
X013302Y006616D01*
X013192Y006570D01*
X013107Y006486D01*
X012657Y006036D01*
X012612Y005925D01*
X012612Y005540D01*
X012538Y005466D01*
X010786Y005466D01*
X010432Y005820D01*
X010321Y005866D01*
X009855Y005866D01*
X009855Y006013D01*
X009773Y006095D01*
X008870Y006095D01*
X008813Y006039D01*
X007852Y007000D01*
X007852Y007003D01*
X007785Y007165D01*
X007661Y007289D01*
X007499Y007356D01*
X006724Y007356D01*
X006563Y007289D01*
X006439Y007165D01*
X006372Y007003D01*
X006372Y006828D01*
X006439Y006666D01*
X006563Y006543D01*
X006724Y006476D01*
X007499Y006476D01*
X007519Y006484D01*
X008507Y005496D01*
X008592Y005411D01*
X008702Y005366D01*
X008788Y005366D01*
X008788Y005307D01*
X008870Y005225D01*
X009773Y005225D01*
X009814Y005266D01*
X010138Y005266D01*
X010243Y005160D01*
X010240Y005160D01*
X010158Y005078D01*
X010158Y004253D01*
X010240Y004171D01*
X010986Y004171D01*
X011068Y004253D01*
X011068Y004866D01*
X011068Y004684D02*
X013661Y004684D01*
X013661Y004525D02*
X011068Y004525D01*
X011068Y004367D02*
X013661Y004367D01*
X013661Y004208D02*
X011023Y004208D01*
X010662Y004614D02*
X010613Y004666D01*
X010158Y004684D02*
X009588Y004684D01*
X009588Y004743D02*
X009588Y004588D01*
X009588Y004131D01*
X009849Y004131D01*
X009895Y004144D01*
X009936Y004167D01*
X009970Y004201D01*
X009993Y004242D01*
X010006Y004288D01*
X010006Y004588D01*
X009588Y004588D01*
X009433Y004588D01*
X009433Y004131D01*
X009172Y004131D01*
X009126Y004144D01*
X009085Y004167D01*
X009052Y004201D01*
X009028Y004242D01*
X009016Y004288D01*
X009016Y004588D01*
X009433Y004588D01*
X009433Y004743D01*
X009016Y004743D01*
X009016Y005044D01*
X009028Y005089D01*
X009052Y005130D01*
X009085Y005164D01*
X009126Y005188D01*
X009172Y005200D01*
X009433Y005200D01*
X009433Y004743D01*
X009588Y004743D01*
X009588Y005200D01*
X009849Y005200D01*
X009895Y005188D01*
X009936Y005164D01*
X009970Y005130D01*
X009993Y005089D01*
X010006Y005044D01*
X010006Y004743D01*
X009588Y004743D01*
X009588Y004842D02*
X009433Y004842D01*
X009433Y004684D02*
X008448Y004684D01*
X008448Y004842D02*
X009016Y004842D01*
X009016Y005001D02*
X008448Y005001D01*
X008448Y004993D02*
X008448Y005024D01*
X008445Y005026D01*
X008437Y005138D01*
X008441Y005143D01*
X008435Y005170D01*
X008433Y005197D01*
X008428Y005202D01*
X008404Y005314D01*
X008406Y005320D01*
X008397Y005346D01*
X008391Y005373D01*
X008386Y005376D01*
X008345Y005484D01*
X008347Y005490D01*
X008334Y005514D01*
X008324Y005540D01*
X008318Y005543D01*
X008263Y005644D01*
X008264Y005650D01*
X008248Y005672D01*
X008235Y005696D01*
X008228Y005698D01*
X008159Y005791D01*
X008159Y005797D01*
X008140Y005816D01*
X008123Y005838D01*
X008117Y005839D01*
X008035Y005921D01*
X008035Y005927D01*
X008013Y005944D01*
X007993Y005963D01*
X007987Y005963D01*
X007894Y006032D01*
X007893Y006038D01*
X007869Y006051D01*
X007847Y006068D01*
X007840Y006067D01*
X007739Y006122D01*
X007736Y006128D01*
X007711Y006138D01*
X007687Y006151D01*
X007680Y006149D01*
X007572Y006189D01*
X007569Y006195D01*
X007542Y006201D01*
X007516Y006210D01*
X007510Y006208D01*
X007398Y006232D01*
X007393Y006237D01*
X007366Y006239D01*
X007339Y006245D01*
X007334Y006241D01*
X007222Y006249D01*
X007220Y006252D01*
X007189Y006252D01*
X007159Y006254D01*
X007157Y006252D01*
X005842Y006252D01*
X005842Y020265D01*
X007157Y020265D01*
X007159Y020263D01*
X007189Y020265D01*
X007220Y020265D01*
X007222Y020267D01*
X007334Y020275D01*
X007339Y020272D01*
X007366Y020277D01*
X007393Y020279D01*
X007398Y020284D01*
X007510Y020309D01*
X007516Y020306D01*
X007542Y020316D01*
X007569Y020321D01*
X007572Y020327D01*
X007680Y020367D01*
X007687Y020365D01*
X007711Y020379D01*
X007736Y020388D01*
X007739Y020394D01*
X007779Y020416D01*
X007882Y020416D01*
X007824Y020386D01*
X007754Y020335D01*
X007692Y020274D01*
X007641Y020204D01*
X007602Y020127D01*
X007575Y020044D01*
X007562Y019959D01*
X007562Y019936D01*
X008092Y019936D01*
X008092Y020416D01*
X008132Y020416D01*
X008132Y019936D01*
X008092Y019936D01*
X008092Y019896D01*
X007562Y019896D01*
X007562Y019872D01*
X007575Y019787D01*
X007602Y019704D01*
X007641Y019627D01*
X007692Y019557D01*
X007754Y019496D01*
X007824Y019445D01*
X007882Y019416D01*
X007824Y019386D01*
X007754Y019335D01*
X007692Y019274D01*
X007641Y019204D01*
X007602Y019127D01*
X007575Y019044D01*
X007562Y018959D01*
X007562Y018936D01*
X008092Y018936D01*
X008092Y019896D01*
X008132Y019896D01*
X008132Y019366D01*
X008132Y018936D01*
X008092Y018936D01*
X008092Y018896D01*
X007562Y018896D01*
X007562Y018872D01*
X007575Y018787D01*
X007602Y018704D01*
X007641Y018627D01*
X007692Y018557D01*
X007754Y018496D01*
X007824Y018445D01*
X007882Y018416D01*
X007824Y018386D01*
X007754Y018335D01*
X007692Y018274D01*
X007641Y018204D01*
X007602Y018127D01*
X007575Y018044D01*
X007562Y017959D01*
X007562Y017936D01*
X008092Y017936D01*
X008092Y018896D01*
X008132Y018896D01*
X008132Y018466D01*
X008132Y017936D01*
X008092Y017936D01*
X008092Y017896D01*
X007562Y017896D01*
X007562Y017872D01*
X007575Y017787D01*
X007602Y017704D01*
X007641Y017627D01*
X007692Y017557D01*
X007754Y017496D01*
X007824Y017445D01*
X007882Y017416D01*
X007824Y017386D01*
X007754Y017335D01*
X007692Y017274D01*
X007641Y017204D01*
X007602Y017127D01*
X007575Y017044D01*
X007562Y016959D01*
X007562Y016936D01*
X008092Y016936D01*
X008092Y017896D01*
X008132Y017896D01*
X008132Y017366D01*
X008132Y016936D01*
X008092Y016936D01*
X008092Y016896D01*
X007562Y016896D01*
X007562Y016872D01*
X007575Y016787D01*
X007602Y016704D01*
X007641Y016627D01*
X007692Y016557D01*
X007754Y016496D01*
X007824Y016445D01*
X007882Y016416D01*
X007824Y016386D01*
X007754Y016335D01*
X007692Y016274D01*
X007641Y016204D01*
X007602Y016127D01*
X007575Y016044D01*
X007562Y015959D01*
X007562Y015936D01*
X008092Y015936D01*
X008092Y016896D01*
X008132Y016896D01*
X008132Y016366D01*
X008132Y015936D01*
X008092Y015936D01*
X008092Y015896D01*
X007562Y015896D01*
X007562Y015872D01*
X007575Y015787D01*
X007602Y015704D01*
X007641Y015627D01*
X007692Y015557D01*
X007754Y015496D01*
X007824Y015445D01*
X007882Y015416D01*
X007824Y015386D01*
X007754Y015335D01*
X007692Y015274D01*
X007641Y015204D01*
X007602Y015127D01*
X007575Y015044D01*
X007562Y014959D01*
X007562Y014936D01*
X008092Y014936D01*
X008092Y015896D01*
X008132Y015896D01*
X008132Y015366D01*
X008132Y014936D01*
X008092Y014936D01*
X008092Y014896D01*
X007562Y014896D01*
X007562Y014872D01*
X007575Y014787D01*
X007602Y014704D01*
X007641Y014627D01*
X007692Y014557D01*
X007754Y014496D01*
X007824Y014445D01*
X007882Y014416D01*
X007824Y014386D01*
X007754Y014335D01*
X007692Y014274D01*
X007641Y014204D01*
X007602Y014127D01*
X007575Y014044D01*
X007562Y013959D01*
X007562Y013936D01*
X008092Y013936D01*
X008092Y014896D01*
X008132Y014896D01*
X008132Y014366D01*
X008132Y013936D01*
X008092Y013936D01*
X008092Y013896D01*
X007562Y013896D01*
X007562Y013872D01*
X007575Y013787D01*
X007602Y013704D01*
X007641Y013627D01*
X007692Y013557D01*
X007754Y013496D01*
X007824Y013445D01*
X007901Y013406D01*
X007904Y013405D01*
X007834Y013369D01*
X007767Y013320D01*
X007708Y013261D01*
X007659Y013193D01*
X007621Y013119D01*
X007595Y013040D01*
X007582Y012957D01*
X007582Y012936D01*
X008092Y012936D01*
X008092Y013446D01*
X008092Y013896D01*
X008132Y013896D01*
X008132Y012936D01*
X008092Y012936D01*
X008092Y012896D01*
X007582Y012896D01*
X007582Y012874D01*
X007595Y012792D01*
X007621Y012712D01*
X007659Y012638D01*
X007708Y012570D01*
X007767Y012511D01*
X007834Y012462D01*
X007908Y012424D01*
X007936Y012416D01*
X007908Y012407D01*
X007834Y012369D01*
X007767Y012320D01*
X007708Y012261D01*
X007659Y012193D01*
X007621Y012119D01*
X007595Y012040D01*
X007582Y011957D01*
X007582Y011936D01*
X008092Y011936D01*
X008092Y012896D01*
X008132Y012896D01*
X008132Y012386D01*
X008132Y011936D01*
X008092Y011936D01*
X008092Y011896D01*
X007582Y011896D01*
X007582Y011874D01*
X007595Y011792D01*
X007621Y011712D01*
X007659Y011638D01*
X007708Y011570D01*
X007767Y011511D01*
X007834Y011462D01*
X007908Y011424D01*
X007936Y011416D01*
X007908Y011407D01*
X007834Y011369D01*
X007767Y011320D01*
X007708Y011261D01*
X007659Y011193D01*
X007621Y011119D01*
X007595Y011040D01*
X007582Y010957D01*
X007582Y010936D01*
X008092Y010936D01*
X008092Y011896D01*
X008132Y011896D01*
X008132Y011386D01*
X008132Y010936D01*
X008092Y010936D01*
X008092Y010896D01*
X007582Y010896D01*
X007582Y010874D01*
X007595Y010792D01*
X007621Y010712D01*
X007659Y010638D01*
X007708Y010570D01*
X007767Y010511D01*
X007834Y010462D01*
X007908Y010424D01*
X007936Y010416D01*
X007908Y010407D01*
X007834Y010369D01*
X007767Y010320D01*
X007708Y010261D01*
X007659Y010193D01*
X007621Y010119D01*
X007595Y010040D01*
X007582Y009957D01*
X007582Y009936D01*
X008092Y009936D01*
X008092Y010896D01*
X008132Y010896D01*
X008132Y010386D01*
X008132Y009936D01*
X008092Y009936D01*
X008092Y009896D01*
X007582Y009896D01*
X007582Y009874D01*
X007595Y009792D01*
X007621Y009712D01*
X007659Y009638D01*
X007708Y009570D01*
X007767Y009511D01*
X007834Y009462D01*
X007908Y009424D01*
X007988Y009399D01*
X008070Y009386D01*
X008092Y009386D01*
X008092Y009896D01*
X008132Y009896D01*
X008132Y009386D01*
X008154Y009386D01*
X008158Y009386D01*
X007988Y009216D01*
X007734Y009216D01*
X007661Y009289D01*
X007499Y009356D01*
X006724Y009356D01*
X006563Y009289D01*
X006439Y009165D01*
X006372Y009003D01*
X006372Y008828D01*
X006439Y008666D01*
X006563Y008543D01*
X006724Y008476D01*
X007499Y008476D01*
X007661Y008543D01*
X007734Y008616D01*
X008171Y008616D01*
X008282Y008661D01*
X008812Y009191D01*
X008812Y008905D01*
X008857Y008794D01*
X009056Y008596D01*
X009056Y008153D01*
X009138Y008071D01*
X009532Y008071D01*
X009657Y007946D01*
X009389Y007946D01*
X009389Y007539D01*
X009254Y007539D01*
X009254Y007946D01*
X008904Y007946D01*
X008858Y007934D01*
X008817Y007910D01*
X008784Y007877D01*
X008760Y007836D01*
X008748Y007790D01*
X008748Y007539D01*
X009254Y007539D01*
X009254Y007403D01*
X008748Y007403D01*
X008748Y007152D01*
X008760Y007106D01*
X008784Y007065D01*
X008817Y007032D01*
X008858Y007008D01*
X008885Y007001D01*
X008870Y007001D01*
X008788Y006919D01*
X008788Y006212D01*
X008870Y006130D01*
X009773Y006130D01*
X009855Y006212D01*
X009855Y006919D01*
X009773Y007001D01*
X009758Y007001D01*
X009785Y007008D01*
X009826Y007032D01*
X009859Y007065D01*
X009883Y007106D01*
X009895Y007152D01*
X009895Y007403D01*
X009389Y007403D01*
X009389Y007539D01*
X009895Y007539D01*
X009895Y007708D01*
X010162Y007441D01*
X010162Y007006D01*
X010207Y006896D01*
X010707Y006396D01*
X010792Y006311D01*
X010902Y006266D01*
X011268Y006266D01*
X011268Y005760D01*
X011350Y005678D01*
X012254Y005678D01*
X012336Y005760D01*
X012336Y007372D01*
X012254Y007454D01*
X012112Y007454D01*
X012112Y010291D01*
X012737Y010916D01*
X012957Y010696D01*
X013042Y010611D01*
X013078Y010596D01*
X013078Y010491D01*
X013160Y010409D01*
X014064Y010409D01*
X014146Y010491D01*
X014146Y010564D01*
X014936Y010564D01*
X014892Y010520D01*
X014892Y010520D01*
X014807Y010436D01*
X014762Y010325D01*
X014762Y009257D01*
X014679Y009175D01*
X014612Y009011D01*
X014544Y009175D01*
X014401Y009318D01*
X014213Y009396D01*
X014010Y009396D01*
X013823Y009318D01*
X013679Y009175D01*
X013633Y009062D01*
X013622Y009097D01*
X013582Y009174D01*
X013531Y009244D01*
X013470Y009305D01*
X013400Y009356D01*
X013323Y009395D01*
X013241Y009422D01*
X013155Y009436D01*
X013132Y009436D01*
X013132Y008906D01*
X013092Y008906D01*
X013092Y009436D01*
X013069Y009436D01*
X012983Y009422D01*
X012901Y009395D01*
X012824Y009356D01*
X012754Y009305D01*
X012692Y009244D01*
X012641Y009174D01*
X012602Y009097D01*
X012575Y009014D01*
X012562Y008929D01*
X012562Y008906D01*
X013092Y008906D01*
X013092Y008866D01*
X012562Y008866D01*
X012562Y008842D01*
X012575Y008757D01*
X012602Y008674D01*
X012641Y008597D01*
X012692Y008527D01*
X012754Y008466D01*
X012824Y008415D01*
X012901Y008376D01*
X012983Y008349D01*
X013069Y008336D01*
X013092Y008336D01*
X013092Y008866D01*
X013132Y008866D01*
X013132Y008336D01*
X013155Y008336D01*
X013241Y008349D01*
X013323Y008376D01*
X013400Y008415D01*
X013470Y008466D01*
X013531Y008527D01*
X013582Y008597D01*
X013622Y008674D01*
X013633Y008709D01*
X013679Y008597D01*
X013823Y008453D01*
X013892Y008425D01*
X013892Y008324D01*
X014621Y007596D01*
X017856Y007596D01*
X017884Y007530D01*
X017976Y007437D01*
X018097Y007388D01*
X018179Y007388D01*
X018842Y006724D01*
X018842Y004874D01*
X019192Y004524D01*
X019321Y004396D01*
X019524Y004396D01*
X019524Y004151D01*
X019606Y004069D01*
X020352Y004069D01*
X020434Y004151D01*
X020434Y005055D01*
X020370Y005119D01*
X020416Y005164D01*
X020416Y006067D01*
X020334Y006149D01*
X020181Y006149D01*
X020181Y007388D01*
X020062Y007507D01*
X020062Y008023D01*
X019995Y008185D01*
X019871Y008309D01*
X019842Y008321D01*
X019842Y009510D01*
X019871Y009523D01*
X019995Y009646D01*
X020062Y009808D01*
X020062Y010583D01*
X019995Y010745D01*
X019882Y010858D01*
X019882Y014974D01*
X020603Y015696D01*
X020651Y015696D01*
X020679Y015627D01*
X020823Y015483D01*
X020986Y015416D01*
X020823Y015348D01*
X020679Y015205D01*
X020602Y015017D01*
X020602Y014814D01*
X020679Y014627D01*
X020823Y014483D01*
X020986Y014416D01*
X020823Y014348D01*
X020679Y014205D01*
X020602Y014017D01*
X020602Y013814D01*
X020679Y013627D01*
X020823Y013483D01*
X020986Y013416D01*
X020823Y013348D01*
X020679Y013205D01*
X020602Y013017D01*
X020602Y012814D01*
X020679Y012627D01*
X020823Y012483D01*
X020986Y012416D01*
X020823Y012348D01*
X020679Y012205D01*
X020602Y012017D01*
X020602Y011814D01*
X020679Y011627D01*
X020823Y011483D01*
X021010Y011406D01*
X021213Y011406D01*
X021401Y011483D01*
X021544Y011627D01*
X021612Y011790D01*
X021679Y011627D01*
X021823Y011483D01*
X022010Y011406D01*
X022048Y011406D01*
X022612Y010841D01*
X022612Y010775D01*
X022588Y010808D01*
X022535Y010862D01*
X022473Y010906D01*
X022406Y010940D01*
X022334Y010964D01*
X022260Y010976D01*
X022242Y010976D01*
X022242Y010216D01*
X022202Y010216D01*
X022202Y010976D01*
X022184Y010976D01*
X022109Y010964D01*
X022038Y010940D01*
X021970Y010906D01*
X021909Y010862D01*
X021856Y010808D01*
X021812Y010748D01*
X021768Y010808D01*
X021715Y010862D01*
X021653Y010906D01*
X021586Y010940D01*
X021514Y010964D01*
X021440Y010976D01*
X021422Y010976D01*
X021422Y010216D01*
X021382Y010216D01*
X021382Y010976D01*
X021364Y010976D01*
X021289Y010964D01*
X021218Y010940D01*
X021150Y010906D01*
X021089Y010862D01*
X021036Y010808D01*
X020991Y010747D01*
X020957Y010680D01*
X020934Y010608D01*
X020922Y010533D01*
X020922Y010216D01*
X021382Y010216D01*
X021382Y010176D01*
X020922Y010176D01*
X020922Y009858D01*
X020934Y009783D01*
X020957Y009711D01*
X020991Y009644D01*
X021036Y009583D01*
X021089Y009529D01*
X021150Y009485D01*
X021218Y009451D01*
X021289Y009427D01*
X021364Y009416D01*
X021382Y009416D01*
X021382Y010176D01*
X021422Y010176D01*
X021422Y010216D01*
X022202Y010216D01*
X022202Y010176D01*
X021882Y010176D01*
X021422Y010176D01*
X021422Y009416D01*
X021440Y009416D01*
X021514Y009427D01*
X021586Y009451D01*
X021653Y009485D01*
X021715Y009529D01*
X021768Y009583D01*
X021812Y009643D01*
X021856Y009583D01*
X021909Y009529D01*
X021970Y009485D01*
X022038Y009451D01*
X022109Y009427D01*
X022184Y009416D01*
X022202Y009416D01*
X022202Y010176D01*
X022242Y010176D01*
X022242Y009416D01*
X022260Y009416D01*
X022334Y009427D01*
X022406Y009451D01*
X022473Y009485D01*
X022535Y009529D01*
X022588Y009583D01*
X022612Y009616D01*
X022612Y008215D01*
X022588Y008248D01*
X022535Y008302D01*
X022473Y008346D01*
X022406Y008380D01*
X022334Y008404D01*
X022260Y008416D01*
X022242Y008416D01*
X022242Y007656D01*
X022202Y007656D01*
X022202Y008416D01*
X022184Y008416D01*
X022109Y008404D01*
X022038Y008380D01*
X021970Y008346D01*
X021909Y008302D01*
X021856Y008248D01*
X021812Y008188D01*
X021768Y008248D01*
X021715Y008302D01*
X021653Y008346D01*
X021586Y008380D01*
X021514Y008404D01*
X021440Y008416D01*
X021422Y008416D01*
X021422Y007656D01*
X021382Y007656D01*
X021382Y008416D01*
X021364Y008416D01*
X021289Y008404D01*
X021218Y008380D01*
X021150Y008346D01*
X021089Y008302D01*
X021036Y008248D01*
X020991Y008187D01*
X020957Y008120D01*
X020934Y008048D01*
X020922Y007973D01*
X020922Y007656D01*
X021382Y007656D01*
X021382Y007616D01*
X020922Y007616D01*
X020922Y007298D01*
X020934Y007223D01*
X020957Y007151D01*
X020991Y007084D01*
X021036Y007023D01*
X021089Y006969D01*
X021150Y006925D01*
X021218Y006891D01*
X021289Y006867D01*
X021364Y006856D01*
X021382Y006856D01*
X021382Y007616D01*
X021422Y007616D01*
X021422Y007656D01*
X022202Y007656D01*
X022202Y007616D01*
X021742Y007616D01*
X021422Y007616D01*
X021422Y006856D01*
X021440Y006856D01*
X021514Y006867D01*
X021586Y006891D01*
X021653Y006925D01*
X021715Y006969D01*
X021768Y007023D01*
X021812Y007083D01*
X021856Y007023D01*
X021909Y006969D01*
X021970Y006925D01*
X022038Y006891D01*
X022109Y006867D01*
X022184Y006856D01*
X022202Y006856D01*
X022202Y007616D01*
X022242Y007616D01*
X022242Y006856D01*
X022260Y006856D01*
X022334Y006867D01*
X022406Y006891D01*
X022473Y006925D01*
X022535Y006969D01*
X022588Y007023D01*
X022612Y007056D01*
X022612Y006940D01*
X022144Y006472D01*
X022129Y006466D01*
X021552Y006466D01*
X021442Y006420D01*
X021307Y006286D01*
X021307Y006284D01*
X021172Y006149D01*
X020690Y006149D01*
X020608Y006067D01*
X020608Y005164D01*
X020672Y005100D01*
X020627Y005055D01*
X020627Y004151D01*
X020709Y004069D01*
X021454Y004069D01*
X021536Y004151D01*
X021536Y005055D01*
X021473Y005119D01*
X021518Y005164D01*
X021518Y005646D01*
X021737Y005866D01*
X022129Y005866D01*
X022197Y005838D01*
X022327Y005838D01*
X022448Y005887D01*
X022540Y005980D01*
X022568Y006048D01*
X023166Y006646D01*
X023212Y006756D01*
X023212Y011025D01*
X023166Y011136D01*
X023082Y011220D01*
X022891Y011411D01*
X022901Y011406D01*
X022983Y011379D01*
X023069Y011366D01*
X023092Y011366D01*
X023092Y011896D01*
X023132Y011896D01*
X023132Y011936D01*
X023092Y011936D01*
X023092Y012896D01*
X023132Y012896D01*
X023132Y012936D01*
X023092Y012936D01*
X023092Y013896D01*
X023132Y013896D01*
X023132Y013936D01*
X023092Y013936D01*
X023092Y014896D01*
X023132Y014896D01*
X023132Y014936D01*
X023092Y014936D01*
X023092Y015896D01*
X023132Y015896D01*
X023132Y015936D01*
X023092Y015936D01*
X023092Y016896D01*
X023132Y016896D01*
X023132Y016936D01*
X023092Y016936D01*
X023092Y017896D01*
X023132Y017896D01*
X023132Y017936D01*
X023092Y017936D01*
X023092Y018896D01*
X023132Y018896D01*
X023132Y018936D01*
X023132Y019366D01*
X023132Y019896D01*
X023132Y019936D01*
X023092Y019936D01*
X023092Y020416D01*
X023130Y020416D01*
X023132Y020415D01*
X023132Y019936D01*
X023662Y019936D01*
X023662Y019959D01*
X023648Y020044D01*
X023622Y020127D01*
X023582Y020204D01*
X023531Y020274D01*
X023527Y020279D01*
X023543Y020277D01*
X023569Y020272D01*
X023575Y020275D01*
X023687Y020267D01*
X023689Y020265D01*
X023719Y020265D01*
X023749Y020263D01*
X023752Y020265D01*
X025067Y020265D01*
X025067Y006252D01*
X023752Y006252D01*
X023749Y006254D01*
X023719Y006252D01*
X023689Y006252D01*
X023687Y006249D01*
X023575Y006241D01*
X023569Y006245D01*
X023543Y006239D01*
X023515Y006237D01*
X023511Y006232D01*
X023398Y006208D01*
X023392Y006210D01*
X023367Y006201D01*
X023340Y006195D01*
X023336Y006189D01*
X023228Y006149D01*
X023222Y006151D01*
X023198Y006138D01*
X023172Y006128D01*
X023170Y006122D01*
X023069Y006067D01*
X023062Y006068D01*
X023040Y006051D01*
X023016Y006038D01*
X023014Y006032D01*
X022922Y005963D01*
X022915Y005963D01*
X022896Y005944D01*
X022874Y005927D01*
X022873Y005921D01*
X022792Y005839D01*
X022785Y005838D01*
X022769Y005816D01*
X022749Y005797D01*
X022749Y005791D01*
X022680Y005698D01*
X022674Y005696D01*
X022661Y005672D01*
X022645Y005650D01*
X022645Y005644D01*
X022590Y005543D01*
X022584Y005540D01*
X022575Y005514D01*
X022562Y005490D01*
X022563Y005484D01*
X022523Y005376D01*
X022518Y005373D01*
X022512Y005346D01*
X022502Y005320D01*
X022505Y005314D01*
X022480Y005202D01*
X022476Y005197D01*
X022474Y005170D01*
X022468Y005143D01*
X022471Y005138D01*
X022463Y005026D01*
X022461Y005024D01*
X022461Y004993D01*
X022459Y004963D01*
X022461Y004961D01*
X022461Y003646D01*
X008448Y003646D01*
X008448Y004961D01*
X008450Y004963D01*
X008448Y004993D01*
X008437Y005159D02*
X009080Y005159D01*
X008788Y005318D02*
X008405Y005318D01*
X008348Y005476D02*
X008527Y005476D01*
X008369Y005635D02*
X008268Y005635D01*
X008210Y005793D02*
X008159Y005793D01*
X008052Y005952D02*
X008005Y005952D01*
X007893Y006110D02*
X007761Y006110D01*
X007735Y006269D02*
X005842Y006269D01*
X005842Y006427D02*
X007576Y006427D01*
X007949Y006903D02*
X008788Y006903D01*
X008788Y007061D02*
X007828Y007061D01*
X007730Y007220D02*
X008748Y007220D01*
X008748Y007378D02*
X005842Y007378D01*
X005842Y007220D02*
X006494Y007220D01*
X006396Y007061D02*
X005842Y007061D01*
X005842Y006903D02*
X006372Y006903D01*
X006407Y006744D02*
X005842Y006744D01*
X005842Y006586D02*
X006520Y006586D01*
X006699Y007447D02*
X006628Y007471D01*
X006560Y007505D01*
X006499Y007549D01*
X006446Y007603D01*
X006401Y007664D01*
X006367Y007731D01*
X006344Y007803D01*
X006332Y007878D01*
X006332Y007896D01*
X007092Y007896D01*
X007092Y007936D01*
X007092Y008396D01*
X006774Y008396D01*
X006699Y008384D01*
X006628Y008360D01*
X006560Y008326D01*
X006499Y008282D01*
X006446Y008228D01*
X006401Y008167D01*
X006367Y008100D01*
X006344Y008028D01*
X006332Y007953D01*
X006332Y007936D01*
X007092Y007936D01*
X007132Y007936D01*
X007132Y008396D01*
X007450Y008396D01*
X007524Y008384D01*
X007596Y008360D01*
X007663Y008326D01*
X007725Y008282D01*
X007778Y008228D01*
X007822Y008167D01*
X007857Y008100D01*
X007880Y008028D01*
X007892Y007953D01*
X007892Y007936D01*
X007132Y007936D01*
X007132Y007896D01*
X007892Y007896D01*
X007892Y007878D01*
X007880Y007803D01*
X007857Y007731D01*
X007822Y007664D01*
X007778Y007603D01*
X007725Y007549D01*
X007663Y007505D01*
X007596Y007471D01*
X007524Y007447D01*
X007450Y007436D01*
X007132Y007436D01*
X007132Y007896D01*
X007092Y007896D01*
X007092Y007436D01*
X006774Y007436D01*
X006699Y007447D01*
X006517Y007537D02*
X005842Y007537D01*
X005842Y007695D02*
X006385Y007695D01*
X006336Y007854D02*
X005842Y007854D01*
X005842Y008012D02*
X006341Y008012D01*
X006404Y008171D02*
X005842Y008171D01*
X005842Y008329D02*
X006566Y008329D01*
X006695Y008488D02*
X005842Y008488D01*
X005842Y008646D02*
X006459Y008646D01*
X006382Y008805D02*
X005842Y008805D01*
X005842Y008963D02*
X006372Y008963D01*
X006421Y009122D02*
X005842Y009122D01*
X005842Y009280D02*
X006554Y009280D01*
X005842Y009439D02*
X007881Y009439D01*
X008092Y009439D02*
X008132Y009439D01*
X008132Y009597D02*
X008092Y009597D01*
X008092Y009756D02*
X008132Y009756D01*
X008092Y009914D02*
X005842Y009914D01*
X005842Y009756D02*
X007607Y009756D01*
X007688Y009597D02*
X005842Y009597D01*
X005842Y010073D02*
X007606Y010073D01*
X007686Y010231D02*
X005842Y010231D01*
X005842Y010390D02*
X007875Y010390D01*
X007730Y010548D02*
X005842Y010548D01*
X005842Y010707D02*
X007623Y010707D01*
X007583Y010865D02*
X005842Y010865D01*
X005842Y011024D02*
X007592Y011024D01*
X007653Y011182D02*
X005842Y011182D01*
X005842Y011341D02*
X007795Y011341D01*
X007783Y011499D02*
X005842Y011499D01*
X005842Y011658D02*
X007648Y011658D01*
X007591Y011816D02*
X005842Y011816D01*
X005842Y011975D02*
X007585Y011975D01*
X007628Y012133D02*
X005842Y012133D01*
X005842Y012292D02*
X007738Y012292D01*
X007858Y012450D02*
X005842Y012450D01*
X005842Y012609D02*
X007680Y012609D01*
X007603Y012767D02*
X005842Y012767D01*
X005842Y012926D02*
X008092Y012926D01*
X008092Y013084D02*
X008132Y013084D01*
X008132Y013243D02*
X008092Y013243D01*
X008092Y013401D02*
X008132Y013401D01*
X008132Y013560D02*
X008092Y013560D01*
X008092Y013718D02*
X008132Y013718D01*
X008132Y013877D02*
X008092Y013877D01*
X008092Y014035D02*
X008132Y014035D01*
X008132Y014194D02*
X008092Y014194D01*
X008092Y014352D02*
X008132Y014352D01*
X008132Y014511D02*
X008092Y014511D01*
X008092Y014669D02*
X008132Y014669D01*
X008132Y014828D02*
X008092Y014828D01*
X008092Y014986D02*
X008132Y014986D01*
X008132Y015145D02*
X008092Y015145D01*
X008092Y015303D02*
X008132Y015303D01*
X008132Y015462D02*
X008092Y015462D01*
X008092Y015620D02*
X008132Y015620D01*
X008132Y015779D02*
X008092Y015779D01*
X008092Y015937D02*
X008132Y015937D01*
X008132Y016096D02*
X008092Y016096D01*
X008092Y016254D02*
X008132Y016254D01*
X008132Y016413D02*
X008092Y016413D01*
X008092Y016571D02*
X008132Y016571D01*
X008132Y016730D02*
X008092Y016730D01*
X008092Y016888D02*
X008132Y016888D01*
X008132Y017047D02*
X008092Y017047D01*
X008092Y017205D02*
X008132Y017205D01*
X008132Y017364D02*
X008092Y017364D01*
X008092Y017522D02*
X008132Y017522D01*
X008132Y017681D02*
X008092Y017681D01*
X008092Y017839D02*
X008132Y017839D01*
X008132Y017998D02*
X008092Y017998D01*
X008092Y018156D02*
X008132Y018156D01*
X008132Y018315D02*
X008092Y018315D01*
X008092Y018473D02*
X008132Y018473D01*
X008132Y018632D02*
X008092Y018632D01*
X008092Y018790D02*
X008132Y018790D01*
X008132Y018949D02*
X008092Y018949D01*
X008092Y019107D02*
X008132Y019107D01*
X008132Y019266D02*
X008092Y019266D01*
X008092Y019424D02*
X008132Y019424D01*
X008132Y019583D02*
X008092Y019583D01*
X008092Y019741D02*
X008132Y019741D01*
X008092Y019900D02*
X005842Y019900D01*
X005842Y020058D02*
X007580Y020058D01*
X007651Y020217D02*
X005842Y020217D01*
X005842Y019741D02*
X007590Y019741D01*
X007674Y019583D02*
X005842Y019583D01*
X005842Y019424D02*
X007865Y019424D01*
X007686Y019266D02*
X005842Y019266D01*
X005842Y019107D02*
X007596Y019107D01*
X007562Y018949D02*
X005842Y018949D01*
X005842Y018790D02*
X007575Y018790D01*
X007639Y018632D02*
X005842Y018632D01*
X005842Y018473D02*
X007785Y018473D01*
X007733Y018315D02*
X005842Y018315D01*
X005842Y018156D02*
X007617Y018156D01*
X007568Y017998D02*
X005842Y017998D01*
X005842Y017839D02*
X007567Y017839D01*
X007614Y017681D02*
X005842Y017681D01*
X005842Y017522D02*
X007727Y017522D01*
X007793Y017364D02*
X005842Y017364D01*
X005842Y017205D02*
X007642Y017205D01*
X007576Y017047D02*
X005842Y017047D01*
X005842Y016888D02*
X007562Y016888D01*
X007594Y016730D02*
X005842Y016730D01*
X005842Y016571D02*
X007682Y016571D01*
X007876Y016413D02*
X005842Y016413D01*
X005842Y016254D02*
X007678Y016254D01*
X007592Y016096D02*
X005842Y016096D01*
X005842Y015937D02*
X007562Y015937D01*
X007578Y015779D02*
X005842Y015779D01*
X005842Y015620D02*
X007647Y015620D01*
X007801Y015462D02*
X005842Y015462D01*
X005842Y015303D02*
X007722Y015303D01*
X007611Y015145D02*
X005842Y015145D01*
X005842Y014986D02*
X007566Y014986D01*
X007569Y014828D02*
X005842Y014828D01*
X005842Y014669D02*
X007620Y014669D01*
X007739Y014511D02*
X005842Y014511D01*
X005842Y014352D02*
X007777Y014352D01*
X007636Y014194D02*
X005842Y014194D01*
X005842Y014035D02*
X007574Y014035D01*
X007562Y013877D02*
X005842Y013877D01*
X005842Y013718D02*
X007598Y013718D01*
X007691Y013560D02*
X005842Y013560D01*
X005842Y013401D02*
X007897Y013401D01*
X007694Y013243D02*
X005842Y013243D01*
X005842Y013084D02*
X007609Y013084D01*
X008092Y012767D02*
X008132Y012767D01*
X008132Y012609D02*
X008092Y012609D01*
X008092Y012450D02*
X008132Y012450D01*
X008132Y012292D02*
X008092Y012292D01*
X008092Y012133D02*
X008132Y012133D01*
X008132Y011975D02*
X008092Y011975D01*
X008092Y011816D02*
X008132Y011816D01*
X008132Y011658D02*
X008092Y011658D01*
X008092Y011499D02*
X008132Y011499D01*
X008132Y011341D02*
X008092Y011341D01*
X008092Y011182D02*
X008132Y011182D01*
X008132Y011024D02*
X008092Y011024D01*
X008092Y010865D02*
X008132Y010865D01*
X008132Y010707D02*
X008092Y010707D01*
X008092Y010548D02*
X008132Y010548D01*
X008132Y010390D02*
X008092Y010390D01*
X008092Y010231D02*
X008132Y010231D01*
X008132Y010073D02*
X008092Y010073D01*
X008288Y010416D02*
X008315Y010424D01*
X008390Y010462D01*
X008457Y010511D01*
X008516Y010570D01*
X008565Y010638D01*
X008603Y010712D01*
X008629Y010792D01*
X008630Y010799D01*
X008696Y010638D01*
X008834Y010500D01*
X009014Y010426D01*
X009209Y010426D01*
X009389Y010500D01*
X009527Y010638D01*
X009602Y010818D01*
X009602Y011013D01*
X009527Y011193D01*
X009389Y011331D01*
X009209Y011406D01*
X009014Y011406D01*
X008834Y011331D01*
X008696Y011193D01*
X008630Y011033D01*
X008629Y011040D01*
X008603Y011119D01*
X008565Y011193D01*
X008516Y011261D01*
X008457Y011320D01*
X008390Y011369D01*
X008315Y011407D01*
X008288Y011416D01*
X008315Y011424D01*
X008390Y011462D01*
X008457Y011511D01*
X008516Y011570D01*
X008565Y011638D01*
X008603Y011712D01*
X008629Y011792D01*
X008630Y011799D01*
X008696Y011638D01*
X008834Y011500D01*
X009014Y011426D01*
X009209Y011426D01*
X009389Y011500D01*
X009527Y011638D01*
X009602Y011818D01*
X009602Y012013D01*
X009527Y012193D01*
X009389Y012331D01*
X009209Y012406D01*
X009014Y012406D01*
X008834Y012331D01*
X008696Y012193D01*
X008630Y012033D01*
X008629Y012040D01*
X008603Y012119D01*
X008565Y012193D01*
X008516Y012261D01*
X008457Y012320D01*
X008390Y012369D01*
X008315Y012407D01*
X008288Y012416D01*
X008315Y012424D01*
X008390Y012462D01*
X008457Y012511D01*
X008516Y012570D01*
X008565Y012638D01*
X008603Y012712D01*
X008629Y012792D01*
X008630Y012799D01*
X008696Y012638D01*
X008834Y012500D01*
X009014Y012426D01*
X009209Y012426D01*
X009389Y012500D01*
X009527Y012638D01*
X009602Y012818D01*
X009602Y013013D01*
X009527Y013193D01*
X009389Y013331D01*
X009209Y013406D01*
X009014Y013406D01*
X008834Y013331D01*
X008696Y013193D01*
X008630Y013033D01*
X008629Y013040D01*
X008603Y013119D01*
X008565Y013193D01*
X008516Y013261D01*
X008457Y013320D01*
X008390Y013369D01*
X008319Y013405D01*
X008323Y013406D01*
X008400Y013445D01*
X008470Y013496D01*
X008531Y013557D01*
X008582Y013627D01*
X008622Y013704D01*
X008633Y013739D01*
X008679Y013627D01*
X008823Y013483D01*
X009010Y013406D01*
X009213Y013406D01*
X009401Y013483D01*
X009544Y013627D01*
X009612Y013790D01*
X009679Y013627D01*
X009823Y013483D01*
X010010Y013406D01*
X010213Y013406D01*
X010401Y013483D01*
X010544Y013627D01*
X010622Y013814D01*
X010622Y014017D01*
X010544Y014205D01*
X010401Y014348D01*
X010237Y014416D01*
X010401Y014483D01*
X010544Y014627D01*
X010622Y014814D01*
X010622Y015017D01*
X010544Y015205D01*
X010401Y015348D01*
X010237Y015416D01*
X010401Y015483D01*
X010544Y015627D01*
X010622Y015814D01*
X010622Y016017D01*
X010544Y016205D01*
X010401Y016348D01*
X010237Y016416D01*
X010401Y016483D01*
X010544Y016627D01*
X010622Y016814D01*
X010622Y017017D01*
X010544Y017205D01*
X012089Y017205D01*
X012106Y017246D02*
X012053Y017119D01*
X012053Y016980D01*
X012106Y016852D01*
X012204Y016755D01*
X012332Y016702D01*
X012886Y016702D01*
X013014Y016755D01*
X013111Y016852D01*
X013164Y016980D01*
X013164Y017119D01*
X013111Y017246D01*
X013014Y017344D01*
X012886Y017397D01*
X012332Y017397D01*
X012204Y017344D01*
X012106Y017246D01*
X012251Y017364D02*
X010363Y017364D01*
X010401Y017348D02*
X010237Y017416D01*
X010401Y017483D01*
X010544Y017627D01*
X010622Y017814D01*
X010622Y018017D01*
X010544Y018205D01*
X010401Y018348D01*
X010237Y018416D01*
X010401Y018483D01*
X010544Y018627D01*
X010573Y018696D01*
X010803Y018696D01*
X010932Y018824D01*
X011232Y019124D01*
X011232Y020416D01*
X011392Y020416D01*
X011392Y019724D01*
X011792Y019324D01*
X011921Y019196D01*
X012125Y019196D01*
X012204Y019117D01*
X012332Y019064D01*
X012886Y019064D01*
X013014Y019117D01*
X013111Y019215D01*
X013164Y019342D01*
X013164Y019481D01*
X013111Y019609D01*
X013014Y019707D01*
X012886Y019759D01*
X012332Y019759D01*
X012204Y019707D01*
X012133Y019636D01*
X012103Y019636D01*
X011832Y019907D01*
X011832Y020416D01*
X012126Y020416D01*
X012106Y020396D01*
X012053Y020268D01*
X012053Y020130D01*
X012106Y020002D01*
X012204Y019904D01*
X012332Y019851D01*
X012886Y019851D01*
X013014Y019904D01*
X013111Y020002D01*
X013164Y020130D01*
X013164Y020268D01*
X013111Y020396D01*
X013092Y020416D01*
X014301Y020416D01*
X013521Y019636D01*
X013392Y019507D01*
X013392Y018260D01*
X013334Y018201D01*
X013284Y018081D01*
X013284Y017950D01*
X013334Y017830D01*
X013426Y017737D01*
X013547Y017688D01*
X013677Y017688D01*
X013798Y017737D01*
X013890Y017830D01*
X013940Y017950D01*
X013940Y018081D01*
X013890Y018201D01*
X013832Y018260D01*
X013832Y019324D01*
X014486Y019979D01*
X018056Y019979D01*
X018131Y019904D01*
X018259Y019851D01*
X018813Y019851D01*
X018941Y019904D01*
X019039Y020002D01*
X019092Y020130D01*
X019092Y020268D01*
X019039Y020396D01*
X019019Y020416D01*
X019392Y020416D01*
X019392Y017507D01*
X019121Y017236D01*
X019043Y017236D01*
X019039Y017246D01*
X018941Y017344D01*
X018813Y017397D01*
X018341Y017397D01*
X018243Y017496D01*
X018259Y017489D01*
X018813Y017489D01*
X018941Y017542D01*
X019039Y017640D01*
X019092Y017768D01*
X019092Y017906D01*
X019039Y018034D01*
X018941Y018132D01*
X018813Y018185D01*
X018259Y018185D01*
X018131Y018132D01*
X018034Y018034D01*
X017981Y017906D01*
X017981Y017768D01*
X017987Y017751D01*
X017932Y017807D01*
X017803Y017936D01*
X016356Y017936D01*
X016298Y017994D01*
X016177Y018044D01*
X016047Y018044D01*
X015926Y017994D01*
X015834Y017901D01*
X015784Y017781D01*
X015784Y017650D01*
X015834Y017530D01*
X015926Y017437D01*
X016047Y017388D01*
X016177Y017388D01*
X016298Y017437D01*
X016356Y017496D01*
X017621Y017496D01*
X017673Y017444D01*
X017647Y017444D01*
X017526Y017394D01*
X017468Y017336D01*
X015356Y017336D01*
X015298Y017394D01*
X015177Y017444D01*
X015047Y017444D01*
X014926Y017394D01*
X014834Y017301D01*
X014784Y017181D01*
X014784Y017050D01*
X014834Y016930D01*
X014926Y016837D01*
X015047Y016788D01*
X015177Y016788D01*
X015298Y016837D01*
X015356Y016896D01*
X017468Y016896D01*
X017526Y016837D01*
X017647Y016788D01*
X017777Y016788D01*
X017898Y016837D01*
X017990Y016930D01*
X017996Y016944D01*
X018034Y016852D01*
X018131Y016755D01*
X018259Y016702D01*
X018813Y016702D01*
X018941Y016755D01*
X018982Y016796D01*
X019303Y016796D01*
X019432Y016924D01*
X019832Y017324D01*
X019832Y020416D01*
X020986Y020416D01*
X020823Y020348D01*
X020679Y020205D01*
X020602Y020017D01*
X020602Y019814D01*
X020679Y019627D01*
X020823Y019483D01*
X020986Y019416D01*
X020823Y019348D01*
X020679Y019205D01*
X020602Y019017D01*
X020602Y018814D01*
X020679Y018627D01*
X020823Y018483D01*
X020986Y018416D01*
X020823Y018348D01*
X020679Y018205D01*
X020602Y018017D01*
X020602Y017814D01*
X020679Y017627D01*
X020823Y017483D01*
X020986Y017416D01*
X020823Y017348D01*
X020679Y017205D01*
X020602Y017017D01*
X020602Y016814D01*
X020679Y016627D01*
X020823Y016483D01*
X020986Y016416D01*
X020823Y016348D01*
X020679Y016205D01*
X020651Y016136D01*
X020421Y016136D01*
X019571Y015286D01*
X019442Y015157D01*
X019442Y013150D01*
X019398Y013194D01*
X019277Y013244D01*
X019147Y013244D01*
X019110Y013229D01*
X019140Y013300D01*
X019140Y013431D01*
X019090Y013551D01*
X018998Y013644D01*
X018993Y013646D01*
X018339Y014299D01*
X018782Y014299D01*
X018857Y014314D01*
X018928Y014344D01*
X018991Y014386D01*
X019045Y014440D01*
X019088Y014504D01*
X019117Y014574D01*
X019132Y014649D01*
X019132Y014687D01*
X018328Y014687D01*
X018840Y014687D01*
X019132Y014687D02*
X019132Y014725D01*
X019117Y014800D01*
X019088Y014871D01*
X019045Y014934D01*
X018991Y014988D01*
X018928Y015031D01*
X018857Y015060D01*
X018782Y015075D01*
X018328Y015075D01*
X018290Y015075D01*
X018215Y015060D01*
X018145Y015031D01*
X018081Y014988D01*
X018027Y014934D01*
X017985Y014871D01*
X017955Y014800D01*
X017941Y014725D01*
X017941Y014698D01*
X017932Y014707D01*
X017932Y015957D01*
X017803Y016086D01*
X017803Y016086D01*
X017632Y016257D01*
X017503Y016386D01*
X017482Y016386D01*
X017482Y016490D01*
X017400Y016572D01*
X016812Y016572D01*
X016730Y016490D01*
X016730Y016016D01*
X016438Y016016D01*
X016482Y016121D01*
X016482Y016271D01*
X016425Y016409D01*
X016319Y016515D01*
X016181Y016572D01*
X016031Y016572D01*
X015893Y016515D01*
X015787Y016409D01*
X015730Y016271D01*
X015730Y016121D01*
X015773Y016016D01*
X015438Y016016D01*
X015482Y016121D01*
X015482Y016271D01*
X015425Y016409D01*
X015319Y016515D01*
X015181Y016572D01*
X015031Y016572D01*
X014893Y016515D01*
X014787Y016409D01*
X014730Y016271D01*
X014730Y016121D01*
X014773Y016016D01*
X014522Y016016D01*
X014522Y016196D01*
X014106Y016196D01*
X014106Y016196D01*
X014522Y016196D01*
X014522Y016456D01*
X014510Y016502D01*
X014486Y016543D01*
X014453Y016576D01*
X014412Y016600D01*
X014366Y016612D01*
X014106Y016612D01*
X014106Y016196D01*
X013690Y016196D01*
X013690Y016016D01*
X013552Y016016D01*
X013442Y015970D01*
X013357Y015886D01*
X013357Y015886D01*
X013121Y015649D01*
X013111Y015672D01*
X013014Y015770D01*
X012886Y015822D01*
X012332Y015822D01*
X012204Y015770D01*
X012106Y015672D01*
X012053Y015544D01*
X012053Y015405D01*
X012106Y015278D01*
X012204Y015180D01*
X012332Y015127D01*
X012866Y015127D01*
X012760Y015035D01*
X012332Y015035D01*
X012204Y014982D01*
X012106Y014884D01*
X012053Y014756D01*
X012053Y014618D01*
X012106Y014490D01*
X012204Y014392D01*
X012332Y014339D01*
X012517Y014339D01*
X012517Y013910D01*
X012390Y013910D01*
X012308Y013828D01*
X012308Y013003D01*
X012390Y012921D01*
X012463Y012921D01*
X012463Y011491D01*
X011642Y010670D01*
X011557Y010586D01*
X011512Y010475D01*
X011512Y007454D01*
X011350Y007454D01*
X011268Y007372D01*
X011268Y006866D01*
X011086Y006866D01*
X010762Y007190D01*
X010762Y007625D01*
X010716Y007736D01*
X010632Y007820D01*
X010420Y008031D01*
X010536Y008031D01*
X010536Y008488D01*
X010690Y008488D01*
X010690Y008031D01*
X010952Y008031D01*
X010997Y008044D01*
X011038Y008067D01*
X011072Y008101D01*
X011096Y008142D01*
X011108Y008188D01*
X011108Y008488D01*
X010690Y008488D01*
X010690Y008643D01*
X010536Y008643D01*
X010536Y009100D01*
X010274Y009100D01*
X010229Y009088D01*
X010188Y009064D01*
X010154Y009030D01*
X010130Y008989D01*
X010118Y008944D01*
X010118Y008643D01*
X010536Y008643D01*
X010536Y008488D01*
X010118Y008488D01*
X010118Y008334D01*
X009966Y008486D01*
X009966Y008978D01*
X009884Y009060D01*
X009441Y009060D01*
X009412Y009089D01*
X009412Y009523D01*
X009527Y009638D01*
X009602Y009818D01*
X009602Y010013D01*
X009527Y010193D01*
X009389Y010331D01*
X009209Y010406D01*
X009014Y010406D01*
X008834Y010331D01*
X008696Y010193D01*
X008630Y010033D01*
X008629Y010040D01*
X008603Y010119D01*
X008565Y010193D01*
X008516Y010261D01*
X008457Y010320D01*
X008390Y010369D01*
X008315Y010407D01*
X008288Y010416D01*
X008349Y010390D02*
X008976Y010390D01*
X008786Y010548D02*
X008494Y010548D01*
X008600Y010707D02*
X008668Y010707D01*
X008692Y011182D02*
X008571Y011182D01*
X008429Y011341D02*
X008857Y011341D01*
X008837Y011499D02*
X008440Y011499D01*
X008575Y011658D02*
X008688Y011658D01*
X008672Y012133D02*
X008596Y012133D01*
X008485Y012292D02*
X008795Y012292D01*
X008955Y012450D02*
X008366Y012450D01*
X008544Y012609D02*
X008726Y012609D01*
X008643Y012767D02*
X008621Y012767D01*
X008614Y013084D02*
X008651Y013084D01*
X008746Y013243D02*
X008529Y013243D01*
X008326Y013401D02*
X009004Y013401D01*
X009220Y013401D02*
X010004Y013401D01*
X010014Y013406D02*
X009834Y013331D01*
X009696Y013193D01*
X009622Y013013D01*
X009622Y012818D01*
X009696Y012638D01*
X009834Y012500D01*
X010014Y012426D01*
X010209Y012426D01*
X010389Y012500D01*
X010527Y012638D01*
X010602Y012818D01*
X010602Y013013D01*
X010527Y013193D01*
X010389Y013331D01*
X010209Y013406D01*
X010014Y013406D01*
X010220Y013401D02*
X011583Y013401D01*
X011583Y013338D02*
X011166Y013338D01*
X011166Y013038D01*
X011178Y012992D01*
X011202Y012951D01*
X011235Y012917D01*
X011276Y012894D01*
X011322Y012881D01*
X011583Y012881D01*
X011583Y013338D01*
X011738Y013338D01*
X011738Y012881D01*
X011999Y012881D01*
X012045Y012894D01*
X012086Y012917D01*
X012120Y012951D01*
X012143Y012992D01*
X012156Y013038D01*
X012156Y013338D01*
X011738Y013338D01*
X011738Y013493D01*
X011583Y013493D01*
X011583Y013338D01*
X011583Y013243D02*
X011738Y013243D01*
X011738Y013401D02*
X012308Y013401D01*
X012308Y013243D02*
X012156Y013243D01*
X012156Y013084D02*
X012308Y013084D01*
X012386Y012926D02*
X012094Y012926D01*
X011738Y012926D02*
X011583Y012926D01*
X011583Y013084D02*
X011738Y013084D01*
X011738Y013493D02*
X012156Y013493D01*
X012156Y013794D01*
X012143Y013839D01*
X012120Y013880D01*
X012086Y013914D01*
X012045Y013938D01*
X011999Y013950D01*
X011738Y013950D01*
X011738Y013493D01*
X011738Y013560D02*
X011583Y013560D01*
X011583Y013493D02*
X011583Y013950D01*
X011322Y013950D01*
X011276Y013938D01*
X011235Y013914D01*
X011202Y013880D01*
X011178Y013839D01*
X011166Y013794D01*
X011166Y013493D01*
X011583Y013493D01*
X011583Y013718D02*
X011738Y013718D01*
X011738Y013877D02*
X011583Y013877D01*
X012122Y013877D02*
X012357Y013877D01*
X012308Y013718D02*
X012156Y013718D01*
X012156Y013560D02*
X012308Y013560D01*
X012517Y014035D02*
X010614Y014035D01*
X010622Y013877D02*
X011199Y013877D01*
X011166Y013718D02*
X010582Y013718D01*
X010477Y013560D02*
X011166Y013560D01*
X011166Y013243D02*
X010478Y013243D01*
X010572Y013084D02*
X011166Y013084D01*
X011227Y012926D02*
X010602Y012926D01*
X010581Y012767D02*
X012463Y012767D01*
X012463Y012609D02*
X010498Y012609D01*
X010268Y012450D02*
X012463Y012450D01*
X012463Y012292D02*
X010429Y012292D01*
X010389Y012331D02*
X010527Y012193D01*
X010602Y012013D01*
X010602Y011818D01*
X010527Y011638D01*
X010389Y011500D01*
X010209Y011426D01*
X010014Y011426D01*
X009834Y011500D01*
X009696Y011638D01*
X009622Y011818D01*
X009622Y012013D01*
X009696Y012193D01*
X009834Y012331D01*
X010014Y012406D01*
X010209Y012406D01*
X010389Y012331D01*
X010552Y012133D02*
X012463Y012133D01*
X012463Y011975D02*
X010602Y011975D01*
X010601Y011816D02*
X012463Y011816D01*
X012463Y011658D02*
X010535Y011658D01*
X010387Y011499D02*
X012463Y011499D01*
X012313Y011341D02*
X010366Y011341D01*
X010389Y011331D02*
X010209Y011406D01*
X010014Y011406D01*
X009834Y011331D01*
X009696Y011193D01*
X009622Y011013D01*
X009622Y010818D01*
X009696Y010638D01*
X009834Y010500D01*
X010014Y010426D01*
X010209Y010426D01*
X010389Y010500D01*
X010527Y010638D01*
X010602Y010818D01*
X010602Y011013D01*
X010527Y011193D01*
X010389Y011331D01*
X010532Y011182D02*
X012154Y011182D01*
X011996Y011024D02*
X010597Y011024D01*
X010602Y010865D02*
X011837Y010865D01*
X011679Y010707D02*
X010556Y010707D01*
X010437Y010548D02*
X011542Y010548D01*
X011512Y010390D02*
X010248Y010390D01*
X010209Y010406D02*
X010014Y010406D01*
X009834Y010331D01*
X009696Y010193D01*
X009622Y010013D01*
X009622Y009818D01*
X009696Y009638D01*
X009834Y009500D01*
X010014Y009426D01*
X010209Y009426D01*
X010389Y009500D01*
X010527Y009638D01*
X010602Y009818D01*
X010602Y010013D01*
X010527Y010193D01*
X010389Y010331D01*
X010209Y010406D01*
X009976Y010390D02*
X009248Y010390D01*
X009437Y010548D02*
X009786Y010548D01*
X009668Y010707D02*
X009556Y010707D01*
X009602Y010865D02*
X009622Y010865D01*
X009626Y011024D02*
X009597Y011024D01*
X009532Y011182D02*
X009692Y011182D01*
X009857Y011341D02*
X009366Y011341D01*
X009387Y011499D02*
X009837Y011499D01*
X009688Y011658D02*
X009535Y011658D01*
X009601Y011816D02*
X009623Y011816D01*
X009622Y011975D02*
X009602Y011975D01*
X009552Y012133D02*
X009672Y012133D01*
X009795Y012292D02*
X009429Y012292D01*
X009268Y012450D02*
X009955Y012450D01*
X009726Y012609D02*
X009498Y012609D01*
X009581Y012767D02*
X009643Y012767D01*
X009622Y012926D02*
X009602Y012926D01*
X009572Y013084D02*
X009651Y013084D01*
X009746Y013243D02*
X009478Y013243D01*
X009477Y013560D02*
X009747Y013560D01*
X009642Y013718D02*
X009582Y013718D01*
X010391Y014352D02*
X012301Y014352D01*
X012098Y014511D02*
X010428Y014511D01*
X010562Y014669D02*
X012053Y014669D01*
X012083Y014828D02*
X010622Y014828D01*
X010622Y014986D02*
X012214Y014986D01*
X012289Y015145D02*
X010569Y015145D01*
X010446Y015303D02*
X012096Y015303D01*
X012053Y015462D02*
X010348Y015462D01*
X010538Y015620D02*
X012085Y015620D01*
X012226Y015779D02*
X010607Y015779D01*
X010622Y015937D02*
X012277Y015937D01*
X012332Y015914D02*
X012204Y015967D01*
X012106Y016065D01*
X012053Y016193D01*
X012053Y016331D01*
X012106Y016459D01*
X012204Y016557D01*
X012332Y016610D01*
X012886Y016610D01*
X013014Y016557D01*
X013111Y016459D01*
X013164Y016331D01*
X013164Y016193D01*
X013111Y016065D01*
X013014Y015967D01*
X012886Y015914D01*
X012332Y015914D01*
X012093Y016096D02*
X010589Y016096D01*
X010495Y016254D02*
X012053Y016254D01*
X012087Y016413D02*
X010245Y016413D01*
X010489Y016571D02*
X012238Y016571D01*
X012264Y016730D02*
X010587Y016730D01*
X010622Y016888D02*
X012091Y016888D01*
X012053Y017047D02*
X010610Y017047D01*
X010544Y017205D02*
X010401Y017348D01*
X010440Y017522D02*
X012252Y017522D01*
X012204Y017542D02*
X012332Y017489D01*
X012886Y017489D01*
X013014Y017542D01*
X013111Y017640D01*
X013164Y017768D01*
X013164Y017906D01*
X013111Y018034D01*
X013014Y018132D01*
X012886Y018185D01*
X012332Y018185D01*
X012204Y018132D01*
X012106Y018034D01*
X012053Y017906D01*
X012053Y017768D01*
X012106Y017640D01*
X012204Y017542D01*
X012089Y017681D02*
X010566Y017681D01*
X010622Y017839D02*
X012053Y017839D01*
X012091Y017998D02*
X010622Y017998D01*
X010564Y018156D02*
X012263Y018156D01*
X012332Y018276D02*
X012204Y018329D01*
X012106Y018427D01*
X012053Y018555D01*
X012053Y018693D01*
X012106Y018821D01*
X012204Y018919D01*
X012332Y018972D01*
X012886Y018972D01*
X013014Y018919D01*
X013111Y018821D01*
X013164Y018693D01*
X013164Y018555D01*
X013111Y018427D01*
X013014Y018329D01*
X012886Y018276D01*
X012332Y018276D01*
X012240Y018315D02*
X010434Y018315D01*
X010376Y018473D02*
X012087Y018473D01*
X012053Y018632D02*
X010546Y018632D01*
X010712Y018916D02*
X010112Y018916D01*
X010712Y018916D02*
X011012Y019216D01*
X011012Y020816D01*
X010612Y021216D01*
X010612Y021364D01*
X010612Y022467D02*
X011261Y022467D01*
X011612Y022116D01*
X011612Y019816D01*
X012012Y019416D01*
X012813Y019416D01*
X012817Y019412D01*
X013164Y019424D02*
X013392Y019424D01*
X013392Y019266D02*
X013132Y019266D01*
X012990Y019107D02*
X013392Y019107D01*
X013392Y018949D02*
X012942Y018949D01*
X013124Y018790D02*
X013392Y018790D01*
X013392Y018632D02*
X013164Y018632D01*
X013130Y018473D02*
X013392Y018473D01*
X013392Y018315D02*
X012978Y018315D01*
X012955Y018156D02*
X013315Y018156D01*
X013284Y017998D02*
X013126Y017998D01*
X013164Y017839D02*
X013330Y017839D01*
X013128Y017681D02*
X015784Y017681D01*
X015808Y017839D02*
X013894Y017839D01*
X013940Y017998D02*
X015935Y017998D01*
X016112Y017716D02*
X017712Y017716D01*
X018328Y017099D01*
X018328Y017049D01*
X018362Y017016D01*
X019212Y017016D01*
X019612Y017416D01*
X019612Y020716D01*
X020261Y021364D01*
X020612Y021364D01*
X020889Y020375D02*
X019832Y020375D01*
X019832Y020217D02*
X020692Y020217D01*
X020619Y020058D02*
X019832Y020058D01*
X019832Y019900D02*
X020602Y019900D01*
X020632Y019741D02*
X019832Y019741D01*
X019832Y019583D02*
X020724Y019583D01*
X020966Y019424D02*
X019832Y019424D01*
X019832Y019266D02*
X020741Y019266D01*
X020639Y019107D02*
X019832Y019107D01*
X019832Y018949D02*
X020602Y018949D01*
X020612Y018790D02*
X019832Y018790D01*
X019832Y018632D02*
X020677Y018632D01*
X020847Y018473D02*
X019832Y018473D01*
X019832Y018315D02*
X020790Y018315D01*
X020659Y018156D02*
X019832Y018156D01*
X019832Y017998D02*
X020602Y017998D01*
X020602Y017839D02*
X019832Y017839D01*
X019832Y017681D02*
X020657Y017681D01*
X020784Y017522D02*
X019832Y017522D01*
X019832Y017364D02*
X020861Y017364D01*
X020680Y017205D02*
X019712Y017205D01*
X019554Y017047D02*
X020614Y017047D01*
X020602Y016888D02*
X019395Y016888D01*
X019249Y017364D02*
X018894Y017364D01*
X018893Y017522D02*
X019392Y017522D01*
X019392Y017681D02*
X019056Y017681D01*
X019092Y017839D02*
X019392Y017839D01*
X019392Y017998D02*
X019054Y017998D01*
X018882Y018156D02*
X019392Y018156D01*
X019392Y018315D02*
X018905Y018315D01*
X018941Y018329D02*
X019039Y018427D01*
X019092Y018555D01*
X019092Y018693D01*
X019039Y018821D01*
X018941Y018919D01*
X018813Y018972D01*
X018259Y018972D01*
X018131Y018919D01*
X018034Y018821D01*
X017981Y018693D01*
X017981Y018555D01*
X018034Y018427D01*
X018131Y018329D01*
X018259Y018276D01*
X018813Y018276D01*
X018941Y018329D01*
X019058Y018473D02*
X019392Y018473D01*
X019392Y018632D02*
X019092Y018632D01*
X019052Y018790D02*
X019392Y018790D01*
X019392Y018949D02*
X018870Y018949D01*
X018813Y019064D02*
X018941Y019117D01*
X019039Y019215D01*
X019092Y019342D01*
X019092Y019481D01*
X019039Y019609D01*
X018941Y019707D01*
X018813Y019759D01*
X018259Y019759D01*
X018131Y019707D01*
X018034Y019609D01*
X017981Y019481D01*
X017981Y019342D01*
X018034Y019215D01*
X018131Y019117D01*
X018259Y019064D01*
X018813Y019064D01*
X018918Y019107D02*
X019392Y019107D01*
X019392Y019266D02*
X019060Y019266D01*
X019092Y019424D02*
X019392Y019424D01*
X019392Y019583D02*
X019050Y019583D01*
X018857Y019741D02*
X019392Y019741D01*
X019392Y019900D02*
X018930Y019900D01*
X019062Y020058D02*
X019392Y020058D01*
X019392Y020217D02*
X019092Y020217D01*
X019047Y020375D02*
X019392Y020375D01*
X018328Y020199D02*
X014395Y020199D01*
X013612Y019416D01*
X013612Y018016D01*
X013909Y018156D02*
X018190Y018156D01*
X018167Y018315D02*
X013832Y018315D01*
X013832Y018473D02*
X018014Y018473D01*
X017981Y018632D02*
X013832Y018632D01*
X013832Y018790D02*
X018021Y018790D01*
X018203Y018949D02*
X013832Y018949D01*
X013832Y019107D02*
X018155Y019107D01*
X018012Y019266D02*
X013832Y019266D01*
X013931Y019424D02*
X017981Y019424D01*
X018023Y019583D02*
X014090Y019583D01*
X014248Y019741D02*
X018215Y019741D01*
X018142Y019900D02*
X014407Y019900D01*
X013943Y020058D02*
X013135Y020058D01*
X013164Y020217D02*
X014102Y020217D01*
X014260Y020375D02*
X013120Y020375D01*
X013002Y019900D02*
X013785Y019900D01*
X013626Y019741D02*
X012930Y019741D01*
X013122Y019583D02*
X013468Y019583D01*
X012288Y019741D02*
X011997Y019741D01*
X011839Y019900D02*
X012215Y019900D01*
X012083Y020058D02*
X011832Y020058D01*
X011832Y020217D02*
X012053Y020217D01*
X012097Y020375D02*
X011832Y020375D01*
X011392Y020375D02*
X011232Y020375D01*
X011232Y020217D02*
X011392Y020217D01*
X011392Y020058D02*
X011232Y020058D01*
X011232Y019900D02*
X011392Y019900D01*
X011392Y019741D02*
X011232Y019741D01*
X011232Y019583D02*
X011534Y019583D01*
X011692Y019424D02*
X011232Y019424D01*
X011232Y019266D02*
X011851Y019266D01*
X012227Y019107D02*
X011214Y019107D01*
X011056Y018949D02*
X012275Y018949D01*
X012093Y018790D02*
X010897Y018790D01*
X012966Y017522D02*
X015841Y017522D01*
X015328Y017364D02*
X017496Y017364D01*
X017712Y017116D02*
X015112Y017116D01*
X015348Y016888D02*
X017475Y016888D01*
X017401Y016571D02*
X018166Y016571D01*
X018131Y016557D02*
X018034Y016459D01*
X017981Y016331D01*
X017981Y016193D01*
X018034Y016065D01*
X018131Y015967D01*
X018259Y015914D01*
X018813Y015914D01*
X018941Y015967D01*
X019039Y016065D01*
X019092Y016193D01*
X019092Y016331D01*
X019039Y016459D01*
X018941Y016557D01*
X018813Y016610D01*
X018259Y016610D01*
X018131Y016557D01*
X018192Y016730D02*
X012953Y016730D01*
X012979Y016571D02*
X013754Y016571D01*
X013759Y016576D02*
X013726Y016543D01*
X013702Y016502D01*
X013690Y016456D01*
X013690Y016196D01*
X014106Y016196D01*
X014106Y016196D01*
X014106Y016196D01*
X014106Y016612D01*
X013846Y016612D01*
X013800Y016600D01*
X013759Y016576D01*
X013690Y016413D02*
X013131Y016413D01*
X013164Y016254D02*
X013690Y016254D01*
X013690Y016096D02*
X013124Y016096D01*
X012941Y015937D02*
X013409Y015937D01*
X013251Y015779D02*
X012992Y015779D01*
X013612Y015291D02*
X013612Y015164D01*
X013615Y015153D01*
X013612Y015105D01*
X013612Y015056D01*
X013608Y015046D01*
X013607Y015034D01*
X013585Y014991D01*
X013566Y014946D01*
X013558Y014938D01*
X013553Y014928D01*
X013516Y014896D01*
X013482Y014861D01*
X013471Y014857D01*
X013147Y014577D01*
X013117Y014503D01*
X013117Y013910D01*
X013136Y013910D01*
X013218Y013828D01*
X013218Y013003D01*
X013136Y012921D01*
X013063Y012921D01*
X013063Y011439D01*
X013182Y011319D01*
X014064Y011319D01*
X014146Y011237D01*
X014146Y011164D01*
X014599Y011164D01*
X014534Y011230D01*
X014484Y011350D01*
X014484Y011481D01*
X014534Y011601D01*
X014626Y011694D01*
X014747Y011744D01*
X014877Y011744D01*
X014998Y011694D01*
X015056Y011636D01*
X015078Y011636D01*
X015078Y012340D01*
X015160Y012422D01*
X015295Y012422D01*
X015121Y012596D01*
X015032Y012684D01*
X015032Y012424D01*
X014424Y011817D01*
X014423Y011806D01*
X014361Y011753D01*
X014303Y011696D01*
X014292Y011696D01*
X014284Y011689D01*
X014202Y011696D01*
X014146Y011696D01*
X014146Y011594D01*
X014064Y011512D01*
X013160Y011512D01*
X013078Y011594D01*
X013078Y012340D01*
X013160Y012422D01*
X014064Y012422D01*
X014146Y012340D01*
X014146Y012160D01*
X014592Y012607D01*
X014592Y013391D01*
X014510Y013357D01*
X014371Y013357D01*
X014244Y013410D01*
X014146Y013508D01*
X014093Y013636D01*
X014093Y014190D01*
X014146Y014317D01*
X014244Y014415D01*
X014371Y014468D01*
X014510Y014468D01*
X014592Y014434D01*
X014592Y014828D01*
X014199Y014828D01*
X014181Y014820D02*
X014319Y014877D01*
X014425Y014983D01*
X014482Y015121D01*
X014482Y015271D01*
X014425Y015409D01*
X014418Y015416D01*
X014793Y015416D01*
X014787Y015409D01*
X014730Y015271D01*
X014730Y015141D01*
X014724Y015136D01*
X014721Y015136D01*
X014658Y015073D01*
X014594Y015012D01*
X014594Y015009D01*
X014592Y015007D01*
X014592Y014918D01*
X014590Y014830D01*
X014592Y014828D01*
X014592Y014986D02*
X014426Y014986D01*
X014482Y015145D02*
X014730Y015145D01*
X014743Y015303D02*
X014469Y015303D01*
X014812Y014916D02*
X014812Y012516D01*
X014212Y011916D01*
X013612Y011967D01*
X014146Y011658D02*
X014590Y011658D01*
X014491Y011499D02*
X013063Y011499D01*
X013063Y011658D02*
X013078Y011658D01*
X013063Y011816D02*
X013078Y011816D01*
X013063Y011975D02*
X013078Y011975D01*
X013063Y012133D02*
X013078Y012133D01*
X013063Y012292D02*
X013078Y012292D01*
X013063Y012450D02*
X014435Y012450D01*
X014592Y012609D02*
X013063Y012609D01*
X013063Y012767D02*
X014592Y012767D01*
X014592Y012926D02*
X013140Y012926D01*
X013218Y013084D02*
X014592Y013084D01*
X014592Y013243D02*
X013218Y013243D01*
X013218Y013401D02*
X013477Y013401D01*
X013456Y013410D02*
X013584Y013357D01*
X013722Y013357D01*
X013850Y013410D01*
X013948Y013508D01*
X014001Y013636D01*
X014001Y014190D01*
X013948Y014317D01*
X013850Y014415D01*
X013722Y014468D01*
X013584Y014468D01*
X013456Y014415D01*
X013358Y014317D01*
X013305Y014190D01*
X013305Y013636D01*
X013358Y013508D01*
X013456Y013410D01*
X013337Y013560D02*
X013218Y013560D01*
X013218Y013718D02*
X013305Y013718D01*
X013305Y013877D02*
X013169Y013877D01*
X013117Y014035D02*
X013305Y014035D01*
X013307Y014194D02*
X013117Y014194D01*
X013117Y014352D02*
X013393Y014352D01*
X013120Y014511D02*
X014592Y014511D01*
X014592Y014669D02*
X013254Y014669D01*
X013437Y014828D02*
X014012Y014828D01*
X014031Y014820D02*
X014181Y014820D01*
X014031Y014820D02*
X013893Y014877D01*
X013787Y014983D01*
X013730Y015121D01*
X013730Y015271D01*
X013787Y015409D01*
X013793Y015416D01*
X013736Y015416D01*
X013612Y015291D01*
X013624Y015303D02*
X013743Y015303D01*
X013730Y015145D02*
X013615Y015145D01*
X013583Y014986D02*
X013786Y014986D01*
X013913Y014352D02*
X014180Y014352D01*
X014094Y014194D02*
X013999Y014194D01*
X014001Y014035D02*
X014093Y014035D01*
X014093Y013877D02*
X014001Y013877D01*
X014001Y013718D02*
X014093Y013718D01*
X014124Y013560D02*
X013969Y013560D01*
X013829Y013401D02*
X014265Y013401D01*
X015032Y012609D02*
X015108Y012609D01*
X015032Y012450D02*
X015266Y012450D01*
X015078Y012292D02*
X014899Y012292D01*
X014740Y012133D02*
X015078Y012133D01*
X015078Y011975D02*
X014582Y011975D01*
X014424Y011816D02*
X015078Y011816D01*
X015078Y011658D02*
X015034Y011658D01*
X014812Y011416D02*
X016412Y011416D01*
X016862Y010966D01*
X016862Y009136D01*
X017112Y008886D01*
X017082Y009396D02*
X017082Y010431D01*
X017108Y010405D01*
X017149Y010382D01*
X017194Y010369D01*
X017534Y010369D01*
X017534Y010787D01*
X017689Y010787D01*
X017689Y010369D01*
X018029Y010369D01*
X018075Y010382D01*
X018116Y010405D01*
X018150Y010439D01*
X018173Y010480D01*
X018186Y010526D01*
X018186Y010787D01*
X017689Y010787D01*
X017689Y010942D01*
X017534Y010942D01*
X017534Y011359D01*
X017194Y011359D01*
X017149Y011347D01*
X017108Y011323D01*
X017074Y011290D01*
X017050Y011249D01*
X017038Y011203D01*
X017038Y011100D01*
X016953Y011186D01*
X016503Y011636D01*
X016146Y011636D01*
X016146Y011729D01*
X016247Y011688D01*
X016377Y011688D01*
X016498Y011737D01*
X016590Y011830D01*
X016640Y011950D01*
X016640Y012081D01*
X016590Y012201D01*
X016498Y012294D01*
X016493Y012296D01*
X017078Y012296D01*
X017078Y011594D01*
X017160Y011512D01*
X018064Y011512D01*
X018146Y011594D01*
X018146Y011609D01*
X018197Y011588D01*
X018327Y011588D01*
X018448Y011637D01*
X018540Y011730D01*
X018590Y011850D01*
X018590Y011981D01*
X018540Y012101D01*
X018448Y012194D01*
X018327Y012244D01*
X018197Y012244D01*
X018146Y012223D01*
X018146Y012296D01*
X018521Y012296D01*
X018884Y011933D01*
X018884Y011850D01*
X018934Y011730D01*
X019026Y011637D01*
X019147Y011588D01*
X019277Y011588D01*
X019398Y011637D01*
X019442Y011682D01*
X019442Y010897D01*
X019373Y010869D01*
X019249Y010745D01*
X019182Y010583D01*
X019182Y009808D01*
X019249Y009646D01*
X019373Y009523D01*
X019402Y009510D01*
X019402Y008321D01*
X019373Y008309D01*
X019249Y008185D01*
X019212Y008096D01*
X018622Y008687D01*
X018622Y009314D01*
X018540Y009396D01*
X017684Y009396D01*
X017602Y009314D01*
X017602Y009035D01*
X017544Y009175D01*
X017401Y009318D01*
X017213Y009396D01*
X017082Y009396D01*
X017082Y009439D02*
X019402Y009439D01*
X019402Y009280D02*
X018622Y009280D01*
X018622Y009122D02*
X019402Y009122D01*
X019402Y008963D02*
X018622Y008963D01*
X018622Y008805D02*
X019402Y008805D01*
X019402Y008646D02*
X018662Y008646D01*
X018821Y008488D02*
X019402Y008488D01*
X019402Y008329D02*
X018979Y008329D01*
X019138Y008171D02*
X019243Y008171D01*
X018833Y007854D02*
X018460Y007854D01*
X018440Y007901D02*
X018348Y007994D01*
X018227Y008044D01*
X018097Y008044D01*
X018077Y008036D01*
X014803Y008036D01*
X014390Y008449D01*
X014401Y008453D01*
X014544Y008597D01*
X014612Y008760D01*
X014679Y008597D01*
X014823Y008453D01*
X015010Y008376D01*
X015213Y008376D01*
X015401Y008453D01*
X015544Y008597D01*
X015612Y008760D01*
X015679Y008597D01*
X015823Y008453D01*
X016010Y008376D01*
X016213Y008376D01*
X016401Y008453D01*
X016544Y008597D01*
X016612Y008760D01*
X016679Y008597D01*
X016823Y008453D01*
X017010Y008376D01*
X017213Y008376D01*
X017401Y008453D01*
X017544Y008597D01*
X017602Y008736D01*
X017602Y008458D01*
X017684Y008376D01*
X018311Y008376D01*
X019182Y007504D01*
X019182Y007248D01*
X019249Y007086D01*
X019373Y006963D01*
X019534Y006896D01*
X019709Y006896D01*
X019741Y006909D01*
X019741Y006149D01*
X019588Y006149D01*
X019506Y006067D01*
X019506Y005164D01*
X019570Y005100D01*
X019524Y005055D01*
X019524Y004836D01*
X019503Y004836D01*
X019282Y005057D01*
X019282Y006907D01*
X019153Y007036D01*
X018490Y007699D01*
X018490Y007781D01*
X018440Y007901D01*
X018303Y008012D02*
X018674Y008012D01*
X018516Y008171D02*
X014668Y008171D01*
X014509Y008329D02*
X018357Y008329D01*
X018062Y007816D02*
X018162Y007716D01*
X019062Y006816D01*
X019062Y004966D01*
X019412Y004616D01*
X019967Y004616D01*
X019979Y004603D01*
X020434Y004525D02*
X020627Y004525D01*
X020627Y004367D02*
X020434Y004367D01*
X020434Y004208D02*
X020627Y004208D01*
X020627Y004684D02*
X020434Y004684D01*
X020434Y004842D02*
X020627Y004842D01*
X020627Y005001D02*
X020434Y005001D01*
X020411Y005159D02*
X020613Y005159D01*
X020608Y005318D02*
X020416Y005318D01*
X020416Y005476D02*
X020608Y005476D01*
X020608Y005635D02*
X020416Y005635D01*
X020416Y005793D02*
X020608Y005793D01*
X020608Y005952D02*
X020416Y005952D01*
X020373Y006110D02*
X020651Y006110D01*
X020181Y006269D02*
X021292Y006269D01*
X021459Y006427D02*
X020181Y006427D01*
X020181Y006586D02*
X022258Y006586D01*
X022416Y006744D02*
X020181Y006744D01*
X020181Y006903D02*
X021194Y006903D01*
X021382Y006903D02*
X021422Y006903D01*
X021422Y007061D02*
X021382Y007061D01*
X021382Y007220D02*
X021422Y007220D01*
X021422Y007378D02*
X021382Y007378D01*
X021382Y007537D02*
X021422Y007537D01*
X021422Y007695D02*
X021382Y007695D01*
X021382Y007854D02*
X021422Y007854D01*
X021422Y008012D02*
X021382Y008012D01*
X021382Y008171D02*
X021422Y008171D01*
X021422Y008329D02*
X021382Y008329D01*
X021127Y008329D02*
X019842Y008329D01*
X019842Y008488D02*
X022612Y008488D01*
X022612Y008646D02*
X019842Y008646D01*
X019842Y008805D02*
X022612Y008805D01*
X022612Y008963D02*
X019842Y008963D01*
X019842Y009122D02*
X022612Y009122D01*
X022612Y009280D02*
X019842Y009280D01*
X019842Y009439D02*
X021255Y009439D01*
X021382Y009439D02*
X021422Y009439D01*
X021549Y009439D02*
X022075Y009439D01*
X022202Y009439D02*
X022242Y009439D01*
X022369Y009439D02*
X022612Y009439D01*
X022598Y009597D02*
X022612Y009597D01*
X022242Y009597D02*
X022202Y009597D01*
X022202Y009756D02*
X022242Y009756D01*
X022242Y009914D02*
X022202Y009914D01*
X022202Y010073D02*
X022242Y010073D01*
X022242Y010231D02*
X022202Y010231D01*
X022202Y010390D02*
X022242Y010390D01*
X022242Y010548D02*
X022202Y010548D01*
X022202Y010707D02*
X022242Y010707D01*
X022242Y010865D02*
X022202Y010865D01*
X022430Y011024D02*
X019882Y011024D01*
X019882Y011182D02*
X022271Y011182D01*
X022113Y011341D02*
X019882Y011341D01*
X019882Y011499D02*
X020807Y011499D01*
X020667Y011658D02*
X019882Y011658D01*
X019882Y011816D02*
X020602Y011816D01*
X020602Y011975D02*
X019882Y011975D01*
X019882Y012133D02*
X020650Y012133D01*
X020767Y012292D02*
X019882Y012292D01*
X019882Y012450D02*
X020903Y012450D01*
X020698Y012609D02*
X019882Y012609D01*
X019882Y012767D02*
X020621Y012767D01*
X020602Y012926D02*
X019882Y012926D01*
X019882Y013084D02*
X020630Y013084D01*
X020718Y013243D02*
X019882Y013243D01*
X019882Y013401D02*
X020951Y013401D01*
X020747Y013560D02*
X019882Y013560D01*
X019882Y013718D02*
X020642Y013718D01*
X020602Y013877D02*
X019882Y013877D01*
X019882Y014035D02*
X020609Y014035D01*
X020675Y014194D02*
X019882Y014194D01*
X019882Y014352D02*
X020833Y014352D01*
X020796Y014511D02*
X019882Y014511D01*
X019882Y014669D02*
X020662Y014669D01*
X020602Y014828D02*
X019882Y014828D01*
X019893Y014986D02*
X020602Y014986D01*
X020655Y015145D02*
X020052Y015145D01*
X020210Y015303D02*
X020778Y015303D01*
X020875Y015462D02*
X020369Y015462D01*
X020527Y015620D02*
X020686Y015620D01*
X020512Y015916D02*
X019662Y015066D01*
X019662Y010256D01*
X019622Y010196D01*
X019622Y007636D01*
X019362Y007636D01*
X018112Y008886D01*
X017602Y009122D02*
X017566Y009122D01*
X017602Y009280D02*
X017439Y009280D01*
X017082Y009597D02*
X019298Y009597D01*
X019204Y009756D02*
X017082Y009756D01*
X017082Y009914D02*
X019182Y009914D01*
X019182Y010073D02*
X017082Y010073D01*
X017082Y010231D02*
X019182Y010231D01*
X019182Y010390D02*
X018089Y010390D01*
X018186Y010548D02*
X019182Y010548D01*
X019233Y010707D02*
X018186Y010707D01*
X018186Y010942D02*
X017689Y010942D01*
X017689Y011359D01*
X018029Y011359D01*
X018075Y011347D01*
X018116Y011323D01*
X018150Y011290D01*
X018173Y011249D01*
X018186Y011203D01*
X018186Y010942D01*
X018186Y011024D02*
X019442Y011024D01*
X019442Y011182D02*
X018186Y011182D01*
X018086Y011341D02*
X019442Y011341D01*
X019442Y011499D02*
X016639Y011499D01*
X016798Y011341D02*
X017137Y011341D01*
X017038Y011182D02*
X016956Y011182D01*
X016642Y010874D02*
X016642Y009084D01*
X016612Y009011D01*
X016544Y009175D01*
X016401Y009318D01*
X016213Y009396D01*
X016010Y009396D01*
X015823Y009318D01*
X015679Y009175D01*
X015612Y009011D01*
X015544Y009175D01*
X015401Y009318D01*
X015362Y009334D01*
X015362Y010141D01*
X015630Y010409D01*
X016064Y010409D01*
X016146Y010491D01*
X016146Y011196D01*
X016321Y011196D01*
X016642Y010874D01*
X016642Y010865D02*
X016146Y010865D01*
X016146Y010707D02*
X016642Y010707D01*
X016642Y010548D02*
X016146Y010548D01*
X016146Y011024D02*
X016493Y011024D01*
X016334Y011182D02*
X016146Y011182D01*
X016146Y011658D02*
X017078Y011658D01*
X017078Y011816D02*
X016576Y011816D01*
X016640Y011975D02*
X017078Y011975D01*
X017078Y012133D02*
X016618Y012133D01*
X016500Y012292D02*
X017078Y012292D01*
X017612Y011967D02*
X017663Y011916D01*
X018262Y011916D01*
X018508Y012133D02*
X018683Y012133D01*
X018590Y011975D02*
X018842Y011975D01*
X018898Y011816D02*
X018576Y011816D01*
X018468Y011658D02*
X019006Y011658D01*
X019212Y011916D02*
X018612Y012516D01*
X015512Y012516D01*
X015212Y012816D01*
X015212Y014104D01*
X015228Y014120D01*
X015488Y014352D02*
X015755Y014352D01*
X015721Y014317D02*
X015668Y014190D01*
X015668Y013636D01*
X015721Y013508D01*
X015792Y013436D01*
X015792Y013024D01*
X015921Y012896D01*
X016081Y012736D01*
X015603Y012736D01*
X015432Y012907D01*
X015432Y013417D01*
X015523Y013508D01*
X015576Y013636D01*
X015576Y014190D01*
X015523Y014317D01*
X015425Y014415D01*
X015297Y014468D01*
X015159Y014468D01*
X015032Y014416D01*
X015032Y014820D01*
X015181Y014820D01*
X015319Y014877D01*
X015425Y014983D01*
X015482Y015121D01*
X015482Y015271D01*
X015425Y015409D01*
X015418Y015416D01*
X015793Y015416D01*
X015787Y015409D01*
X015730Y015271D01*
X015730Y015121D01*
X015787Y014983D01*
X015893Y014877D01*
X016031Y014820D01*
X016181Y014820D01*
X016319Y014877D01*
X016425Y014983D01*
X016482Y015121D01*
X016482Y015271D01*
X016425Y015409D01*
X016418Y015416D01*
X016688Y015416D01*
X016760Y015343D01*
X016730Y015271D01*
X016730Y015121D01*
X016787Y014983D01*
X016893Y014877D01*
X017031Y014820D01*
X017181Y014820D01*
X017319Y014877D01*
X017425Y014983D01*
X017482Y015121D01*
X017482Y015271D01*
X017425Y015409D01*
X017412Y015422D01*
X017413Y015467D01*
X017412Y015471D01*
X017412Y015475D01*
X017391Y015527D01*
X017371Y015579D01*
X017368Y015582D01*
X017366Y015586D01*
X017327Y015625D01*
X017289Y015665D01*
X017285Y015667D01*
X017132Y015820D01*
X017400Y015820D01*
X017423Y015843D01*
X017492Y015774D01*
X017492Y014524D01*
X017548Y014468D01*
X017521Y014468D01*
X017393Y014415D01*
X017295Y014317D01*
X017242Y014190D01*
X017242Y013636D01*
X017295Y013508D01*
X017393Y013410D01*
X017521Y013357D01*
X017659Y013357D01*
X017787Y013410D01*
X017885Y013508D01*
X017938Y013636D01*
X017938Y014078D01*
X018513Y013503D01*
X018484Y013431D01*
X018484Y013300D01*
X018534Y013180D01*
X018578Y013136D01*
X016303Y013136D01*
X016232Y013207D01*
X016232Y013429D01*
X016310Y013508D01*
X016363Y013636D01*
X016363Y014190D01*
X016310Y014317D01*
X016212Y014415D01*
X016085Y014468D01*
X015946Y014468D01*
X015818Y014415D01*
X015721Y014317D01*
X015669Y014194D02*
X015574Y014194D01*
X015576Y014035D02*
X015668Y014035D01*
X015668Y013877D02*
X015576Y013877D01*
X015576Y013718D02*
X015668Y013718D01*
X015699Y013560D02*
X015544Y013560D01*
X015432Y013401D02*
X015792Y013401D01*
X015792Y013243D02*
X015432Y013243D01*
X015432Y013084D02*
X015792Y013084D01*
X015891Y012926D02*
X015432Y012926D01*
X015571Y012767D02*
X016049Y012767D01*
X016212Y012916D02*
X016012Y013116D01*
X016012Y014117D01*
X016015Y014120D01*
X016275Y014352D02*
X016543Y014352D01*
X016508Y014317D02*
X016455Y014190D01*
X016455Y013636D01*
X016508Y013508D01*
X016606Y013410D01*
X016734Y013357D01*
X016872Y013357D01*
X017000Y013410D01*
X017098Y013508D01*
X017151Y013636D01*
X017151Y014190D01*
X017098Y014317D01*
X017000Y014415D01*
X016872Y014468D01*
X016734Y014468D01*
X016606Y014415D01*
X016508Y014317D01*
X016457Y014194D02*
X016361Y014194D01*
X016363Y014035D02*
X016455Y014035D01*
X016455Y013877D02*
X016363Y013877D01*
X016363Y013718D02*
X016455Y013718D01*
X016486Y013560D02*
X016332Y013560D01*
X016232Y013401D02*
X016627Y013401D01*
X016979Y013401D02*
X017414Y013401D01*
X017274Y013560D02*
X017119Y013560D01*
X017151Y013718D02*
X017242Y013718D01*
X017242Y013877D02*
X017151Y013877D01*
X017151Y014035D02*
X017242Y014035D01*
X017244Y014194D02*
X017149Y014194D01*
X017063Y014352D02*
X017330Y014352D01*
X017506Y014511D02*
X015032Y014511D01*
X015032Y014669D02*
X017492Y014669D01*
X017492Y014828D02*
X017199Y014828D01*
X017012Y014828D02*
X016199Y014828D01*
X016012Y014828D02*
X015199Y014828D01*
X015426Y014986D02*
X015786Y014986D01*
X015730Y015145D02*
X015482Y015145D01*
X015469Y015303D02*
X015743Y015303D01*
X015106Y015196D02*
X014812Y014916D01*
X014740Y016096D02*
X014522Y016096D01*
X014522Y016254D02*
X014730Y016254D01*
X014790Y016413D02*
X014522Y016413D01*
X014458Y016571D02*
X015028Y016571D01*
X015184Y016571D02*
X016028Y016571D01*
X016184Y016571D02*
X016810Y016571D01*
X016730Y016413D02*
X016421Y016413D01*
X016482Y016254D02*
X016730Y016254D01*
X016730Y016096D02*
X016471Y016096D01*
X015740Y016096D02*
X015471Y016096D01*
X015482Y016254D02*
X015730Y016254D01*
X015790Y016413D02*
X015421Y016413D01*
X014875Y016888D02*
X013126Y016888D01*
X013164Y017047D02*
X014785Y017047D01*
X014794Y017205D02*
X013129Y017205D01*
X012967Y017364D02*
X014896Y017364D01*
X014106Y016571D02*
X014106Y016571D01*
X014106Y016413D02*
X014106Y016413D01*
X014106Y016254D02*
X014106Y016254D01*
X012517Y014194D02*
X010549Y014194D01*
X008747Y013560D02*
X008533Y013560D01*
X008626Y013718D02*
X008642Y013718D01*
X008538Y010231D02*
X008734Y010231D01*
X008646Y010073D02*
X008618Y010073D01*
X009489Y010231D02*
X009734Y010231D01*
X009646Y010073D02*
X009577Y010073D01*
X009602Y009914D02*
X009622Y009914D01*
X009648Y009756D02*
X009576Y009756D01*
X009486Y009597D02*
X009737Y009597D01*
X009983Y009439D02*
X009412Y009439D01*
X009412Y009280D02*
X011512Y009280D01*
X011512Y009122D02*
X009412Y009122D01*
X009006Y008646D02*
X008245Y008646D01*
X008425Y008805D02*
X008853Y008805D01*
X008812Y008963D02*
X008584Y008963D01*
X008742Y009122D02*
X008812Y009122D01*
X009056Y008488D02*
X007528Y008488D01*
X007658Y008329D02*
X009056Y008329D01*
X009056Y008171D02*
X007820Y008171D01*
X007883Y008012D02*
X009591Y008012D01*
X009389Y007854D02*
X009254Y007854D01*
X009254Y007695D02*
X009389Y007695D01*
X009389Y007537D02*
X010067Y007537D01*
X010162Y007378D02*
X009895Y007378D01*
X009895Y007220D02*
X010162Y007220D01*
X010162Y007061D02*
X009855Y007061D01*
X009855Y006903D02*
X010205Y006903D01*
X010359Y006744D02*
X009855Y006744D01*
X009855Y006586D02*
X010518Y006586D01*
X010676Y006427D02*
X009855Y006427D01*
X009855Y006269D02*
X010895Y006269D01*
X011268Y006110D02*
X008742Y006110D01*
X008788Y006269D02*
X008583Y006269D01*
X008425Y006427D02*
X008788Y006427D01*
X008788Y006586D02*
X008266Y006586D01*
X008108Y006744D02*
X008788Y006744D01*
X009254Y007537D02*
X007707Y007537D01*
X007838Y007695D02*
X008748Y007695D01*
X008770Y007854D02*
X007888Y007854D01*
X007132Y007854D02*
X007092Y007854D01*
X007092Y008012D02*
X007132Y008012D01*
X007132Y008171D02*
X007092Y008171D01*
X007092Y008329D02*
X007132Y008329D01*
X007132Y007695D02*
X007092Y007695D01*
X007092Y007537D02*
X007132Y007537D01*
X007670Y009280D02*
X008052Y009280D01*
X009511Y008566D02*
X009511Y008517D01*
X009966Y008488D02*
X010118Y008488D01*
X010118Y008646D02*
X009966Y008646D01*
X009966Y008805D02*
X010118Y008805D01*
X010123Y008963D02*
X009966Y008963D01*
X010241Y009439D02*
X011512Y009439D01*
X011512Y009597D02*
X010486Y009597D01*
X010576Y009756D02*
X011512Y009756D01*
X011512Y009914D02*
X010602Y009914D01*
X010577Y010073D02*
X011512Y010073D01*
X011512Y010231D02*
X010489Y010231D01*
X010690Y009100D02*
X010690Y008643D01*
X011108Y008643D01*
X011108Y008944D01*
X011096Y008989D01*
X011072Y009030D01*
X011038Y009064D01*
X010997Y009088D01*
X010952Y009100D01*
X010690Y009100D01*
X010690Y008963D02*
X010536Y008963D01*
X010536Y008805D02*
X010690Y008805D01*
X010690Y008646D02*
X010536Y008646D01*
X010536Y008488D02*
X010690Y008488D01*
X010690Y008329D02*
X010536Y008329D01*
X010536Y008171D02*
X010690Y008171D01*
X010440Y008012D02*
X011512Y008012D01*
X011512Y007854D02*
X010598Y007854D01*
X010733Y007695D02*
X011512Y007695D01*
X011512Y007537D02*
X010762Y007537D01*
X010762Y007378D02*
X011275Y007378D01*
X011268Y007220D02*
X010762Y007220D01*
X010891Y007061D02*
X011268Y007061D01*
X011268Y006903D02*
X011049Y006903D01*
X011762Y006606D02*
X011802Y006566D01*
X012336Y006586D02*
X013230Y006586D01*
X013049Y006427D02*
X012336Y006427D01*
X012336Y006269D02*
X012891Y006269D01*
X012732Y006110D02*
X012336Y006110D01*
X012336Y005952D02*
X012623Y005952D01*
X012612Y005793D02*
X012336Y005793D01*
X012612Y005635D02*
X010617Y005635D01*
X010459Y005793D02*
X011268Y005793D01*
X011268Y005952D02*
X009855Y005952D01*
X009562Y005566D02*
X009467Y005660D01*
X009322Y005660D01*
X009433Y005159D02*
X009588Y005159D01*
X009588Y005001D02*
X009433Y005001D01*
X009433Y004525D02*
X009588Y004525D01*
X009588Y004367D02*
X009433Y004367D01*
X009433Y004208D02*
X009588Y004208D01*
X009974Y004208D02*
X010203Y004208D01*
X010158Y004367D02*
X010006Y004367D01*
X010006Y004525D02*
X010158Y004525D01*
X010158Y004842D02*
X010006Y004842D01*
X010006Y005001D02*
X010158Y005001D01*
X010239Y005159D02*
X009941Y005159D01*
X010776Y005476D02*
X012548Y005476D01*
X012921Y005001D02*
X014533Y005001D01*
X014466Y005159D02*
X013080Y005159D01*
X013196Y005318D02*
X014469Y005318D01*
X014546Y005476D02*
X013212Y005476D01*
X013212Y005635D02*
X014769Y005635D01*
X014610Y005793D02*
X013264Y005793D01*
X013422Y005952D02*
X014452Y005952D01*
X015012Y005816D02*
X015100Y005777D01*
X015100Y005429D01*
X015195Y005001D02*
X015949Y005001D01*
X016262Y004842D02*
X014961Y004842D01*
X015280Y005952D02*
X018842Y005952D01*
X018842Y006110D02*
X015142Y006110D01*
X014983Y006269D02*
X018842Y006269D01*
X018842Y006427D02*
X014825Y006427D01*
X014644Y006586D02*
X018842Y006586D01*
X018822Y006744D02*
X012336Y006744D01*
X012336Y006903D02*
X018664Y006903D01*
X018505Y007061D02*
X012336Y007061D01*
X012336Y007220D02*
X018347Y007220D01*
X018188Y007378D02*
X012329Y007378D01*
X012112Y007537D02*
X017881Y007537D01*
X018062Y007816D02*
X014712Y007816D01*
X014112Y008416D01*
X014112Y008886D01*
X014439Y009280D02*
X014762Y009280D01*
X014762Y009439D02*
X012112Y009439D01*
X012112Y009597D02*
X014762Y009597D01*
X014762Y009756D02*
X012112Y009756D01*
X012112Y009914D02*
X014762Y009914D01*
X014762Y010073D02*
X012112Y010073D01*
X012112Y010231D02*
X014762Y010231D01*
X014788Y010390D02*
X012210Y010390D01*
X012369Y010548D02*
X013078Y010548D01*
X012947Y010707D02*
X012527Y010707D01*
X012686Y010865D02*
X012788Y010865D01*
X013161Y011341D02*
X014488Y011341D01*
X014581Y011182D02*
X014146Y011182D01*
X014146Y010548D02*
X014920Y010548D01*
X015452Y010231D02*
X016642Y010231D01*
X016642Y010073D02*
X015362Y010073D01*
X015362Y009914D02*
X016642Y009914D01*
X016642Y009756D02*
X015362Y009756D01*
X015362Y009597D02*
X016642Y009597D01*
X016642Y009439D02*
X015362Y009439D01*
X015439Y009280D02*
X015785Y009280D01*
X015658Y009122D02*
X015566Y009122D01*
X015565Y008646D02*
X015659Y008646D01*
X015789Y008488D02*
X015435Y008488D01*
X014789Y008488D02*
X014435Y008488D01*
X014565Y008646D02*
X014659Y008646D01*
X014658Y009122D02*
X014566Y009122D01*
X013892Y008329D02*
X012112Y008329D01*
X012112Y008171D02*
X014046Y008171D01*
X014204Y008012D02*
X012112Y008012D01*
X012112Y007854D02*
X014363Y007854D01*
X014521Y007695D02*
X012112Y007695D01*
X011512Y008171D02*
X011103Y008171D01*
X011108Y008329D02*
X011512Y008329D01*
X011512Y008488D02*
X011108Y008488D01*
X011108Y008646D02*
X011512Y008646D01*
X011512Y008805D02*
X011108Y008805D01*
X011103Y008963D02*
X011512Y008963D01*
X012112Y008963D02*
X012567Y008963D01*
X012568Y008805D02*
X012112Y008805D01*
X012112Y008646D02*
X012617Y008646D01*
X012732Y008488D02*
X012112Y008488D01*
X012112Y009122D02*
X012615Y009122D01*
X012729Y009280D02*
X012112Y009280D01*
X013092Y009280D02*
X013132Y009280D01*
X013132Y009122D02*
X013092Y009122D01*
X013092Y008963D02*
X013132Y008963D01*
X013132Y008805D02*
X013092Y008805D01*
X013092Y008646D02*
X013132Y008646D01*
X013132Y008488D02*
X013092Y008488D01*
X013492Y008488D02*
X013789Y008488D01*
X013659Y008646D02*
X013607Y008646D01*
X013609Y009122D02*
X013658Y009122D01*
X013785Y009280D02*
X013495Y009280D01*
X015610Y010390D02*
X016642Y010390D01*
X017082Y010390D02*
X017135Y010390D01*
X017534Y010390D02*
X017689Y010390D01*
X017689Y010548D02*
X017534Y010548D01*
X017534Y010707D02*
X017689Y010707D01*
X017661Y010816D02*
X017612Y010864D01*
X017689Y010865D02*
X019369Y010865D01*
X019882Y010865D02*
X021094Y010865D01*
X020971Y010707D02*
X020011Y010707D01*
X020062Y010548D02*
X020924Y010548D01*
X020922Y010390D02*
X020062Y010390D01*
X020062Y010231D02*
X020922Y010231D01*
X020922Y010073D02*
X020062Y010073D01*
X020062Y009914D02*
X020922Y009914D01*
X020943Y009756D02*
X020040Y009756D01*
X019946Y009597D02*
X021025Y009597D01*
X021382Y009597D02*
X021422Y009597D01*
X021422Y009756D02*
X021382Y009756D01*
X021382Y009914D02*
X021422Y009914D01*
X021422Y010073D02*
X021382Y010073D01*
X021382Y010231D02*
X021422Y010231D01*
X021422Y010390D02*
X021382Y010390D01*
X021382Y010548D02*
X021422Y010548D01*
X021422Y010707D02*
X021382Y010707D01*
X021382Y010865D02*
X021422Y010865D01*
X021710Y010865D02*
X021914Y010865D01*
X022530Y010865D02*
X022588Y010865D01*
X022961Y011341D02*
X025067Y011341D01*
X025067Y011499D02*
X023473Y011499D01*
X023470Y011496D02*
X023531Y011557D01*
X023582Y011627D01*
X023622Y011704D01*
X023648Y011787D01*
X023662Y011872D01*
X023662Y011896D01*
X023132Y011896D01*
X023132Y011366D01*
X023155Y011366D01*
X023241Y011379D01*
X023323Y011406D01*
X023400Y011445D01*
X023470Y011496D01*
X023598Y011658D02*
X025067Y011658D01*
X025067Y011816D02*
X023653Y011816D01*
X023662Y011936D02*
X023662Y011959D01*
X023648Y012044D01*
X023622Y012127D01*
X023582Y012204D01*
X023531Y012274D01*
X023470Y012335D01*
X023400Y012386D01*
X023342Y012416D01*
X023400Y012445D01*
X023470Y012496D01*
X023531Y012557D01*
X023582Y012627D01*
X023622Y012704D01*
X023648Y012787D01*
X023662Y012872D01*
X023662Y012896D01*
X023132Y012896D01*
X023132Y012366D01*
X023132Y011936D01*
X023662Y011936D01*
X023659Y011975D02*
X025067Y011975D01*
X025067Y012133D02*
X023618Y012133D01*
X023514Y012292D02*
X025067Y012292D01*
X025067Y012450D02*
X023407Y012450D01*
X023569Y012609D02*
X025067Y012609D01*
X025067Y012767D02*
X023642Y012767D01*
X023662Y012936D02*
X023662Y012959D01*
X023648Y013044D01*
X023622Y013127D01*
X023582Y013204D01*
X023531Y013274D01*
X023470Y013335D01*
X023400Y013386D01*
X023342Y013416D01*
X023400Y013445D01*
X023470Y013496D01*
X023531Y013557D01*
X023582Y013627D01*
X023622Y013704D01*
X023648Y013787D01*
X023662Y013872D01*
X023662Y013896D01*
X023132Y013896D01*
X023132Y013366D01*
X023132Y012936D01*
X023662Y012936D01*
X023635Y013084D02*
X025067Y013084D01*
X025067Y012926D02*
X023132Y012926D01*
X023132Y013084D02*
X023092Y013084D01*
X023092Y013243D02*
X023132Y013243D01*
X023132Y013401D02*
X023092Y013401D01*
X023092Y013560D02*
X023132Y013560D01*
X023132Y013718D02*
X023092Y013718D01*
X023092Y013877D02*
X023132Y013877D01*
X023132Y013936D02*
X023662Y013936D01*
X023662Y013959D01*
X023648Y014044D01*
X023622Y014127D01*
X023582Y014204D01*
X023531Y014274D01*
X023470Y014335D01*
X023400Y014386D01*
X023342Y014416D01*
X023400Y014445D01*
X023470Y014496D01*
X023531Y014557D01*
X023582Y014627D01*
X023622Y014704D01*
X023648Y014787D01*
X023662Y014872D01*
X023662Y014896D01*
X023132Y014896D01*
X023132Y014366D01*
X023132Y013936D01*
X023132Y014035D02*
X023092Y014035D01*
X023092Y014194D02*
X023132Y014194D01*
X023132Y014352D02*
X023092Y014352D01*
X023092Y014511D02*
X023132Y014511D01*
X023132Y014669D02*
X023092Y014669D01*
X023092Y014828D02*
X023132Y014828D01*
X023132Y014936D02*
X023662Y014936D01*
X023662Y014959D01*
X023648Y015044D01*
X023622Y015127D01*
X023582Y015204D01*
X023531Y015274D01*
X023470Y015335D01*
X023400Y015386D01*
X023342Y015416D01*
X023400Y015445D01*
X023470Y015496D01*
X023531Y015557D01*
X023582Y015627D01*
X023622Y015704D01*
X023648Y015787D01*
X023662Y015872D01*
X023662Y015896D01*
X023132Y015896D01*
X023132Y015366D01*
X023132Y014936D01*
X023132Y014986D02*
X023092Y014986D01*
X023092Y015145D02*
X023132Y015145D01*
X023132Y015303D02*
X023092Y015303D01*
X023092Y015462D02*
X023132Y015462D01*
X023132Y015620D02*
X023092Y015620D01*
X023092Y015779D02*
X023132Y015779D01*
X023132Y015936D02*
X023662Y015936D01*
X023662Y015959D01*
X023648Y016044D01*
X023622Y016127D01*
X023582Y016204D01*
X023531Y016274D01*
X023470Y016335D01*
X023400Y016386D01*
X023342Y016416D01*
X023400Y016445D01*
X023470Y016496D01*
X023531Y016557D01*
X023582Y016627D01*
X023622Y016704D01*
X023648Y016787D01*
X023662Y016872D01*
X023662Y016896D01*
X023132Y016896D01*
X023132Y016366D01*
X023132Y015936D01*
X023132Y015937D02*
X023092Y015937D01*
X023092Y016096D02*
X023132Y016096D01*
X023132Y016254D02*
X023092Y016254D01*
X023092Y016413D02*
X023132Y016413D01*
X023132Y016571D02*
X023092Y016571D01*
X023092Y016730D02*
X023132Y016730D01*
X023132Y016888D02*
X023092Y016888D01*
X023132Y016936D02*
X023662Y016936D01*
X023662Y016959D01*
X023648Y017044D01*
X023622Y017127D01*
X023582Y017204D01*
X023531Y017274D01*
X023470Y017335D01*
X023400Y017386D01*
X023342Y017416D01*
X023400Y017445D01*
X023470Y017496D01*
X023531Y017557D01*
X023582Y017627D01*
X023622Y017704D01*
X023648Y017787D01*
X023662Y017872D01*
X023662Y017896D01*
X023132Y017896D01*
X023132Y017366D01*
X023132Y016936D01*
X023132Y017047D02*
X023092Y017047D01*
X023092Y017205D02*
X023132Y017205D01*
X023132Y017364D02*
X023092Y017364D01*
X023092Y017522D02*
X023132Y017522D01*
X023132Y017681D02*
X023092Y017681D01*
X023092Y017839D02*
X023132Y017839D01*
X023132Y017936D02*
X023662Y017936D01*
X023662Y017959D01*
X023648Y018044D01*
X023622Y018127D01*
X023582Y018204D01*
X023531Y018274D01*
X023470Y018335D01*
X023400Y018386D01*
X023342Y018416D01*
X023400Y018445D01*
X023470Y018496D01*
X023531Y018557D01*
X023582Y018627D01*
X023622Y018704D01*
X023648Y018787D01*
X023662Y018872D01*
X023662Y018896D01*
X023132Y018896D01*
X023132Y018466D01*
X023132Y017936D01*
X023132Y017998D02*
X023092Y017998D01*
X023092Y018156D02*
X023132Y018156D01*
X023132Y018315D02*
X023092Y018315D01*
X023092Y018473D02*
X023132Y018473D01*
X023132Y018632D02*
X023092Y018632D01*
X023092Y018790D02*
X023132Y018790D01*
X023132Y018936D02*
X023662Y018936D01*
X023662Y018959D01*
X023648Y019044D01*
X023622Y019127D01*
X023582Y019204D01*
X023531Y019274D01*
X023470Y019335D01*
X023400Y019386D01*
X023342Y019416D01*
X023400Y019445D01*
X023470Y019496D01*
X023531Y019557D01*
X023582Y019627D01*
X023622Y019704D01*
X023648Y019787D01*
X023662Y019872D01*
X023662Y019896D01*
X023132Y019896D01*
X023092Y019896D01*
X023092Y018936D01*
X023132Y018936D01*
X023132Y018949D02*
X023092Y018949D01*
X023092Y019107D02*
X023132Y019107D01*
X023132Y019266D02*
X023092Y019266D01*
X023092Y019424D02*
X023132Y019424D01*
X023132Y019583D02*
X023092Y019583D01*
X023092Y019741D02*
X023132Y019741D01*
X023132Y019900D02*
X025067Y019900D01*
X025067Y020058D02*
X023644Y020058D01*
X023573Y020217D02*
X025067Y020217D01*
X025067Y019741D02*
X023633Y019741D01*
X023550Y019583D02*
X025067Y019583D01*
X025067Y019424D02*
X023359Y019424D01*
X023537Y019266D02*
X025067Y019266D01*
X025067Y019107D02*
X023628Y019107D01*
X023662Y018949D02*
X025067Y018949D01*
X025067Y018790D02*
X023649Y018790D01*
X023584Y018632D02*
X025067Y018632D01*
X025067Y018473D02*
X023439Y018473D01*
X023491Y018315D02*
X025067Y018315D01*
X025067Y018156D02*
X023607Y018156D01*
X023656Y017998D02*
X025067Y017998D01*
X025067Y017839D02*
X023657Y017839D01*
X023609Y017681D02*
X025067Y017681D01*
X025067Y017522D02*
X023496Y017522D01*
X023431Y017364D02*
X025067Y017364D01*
X025067Y017205D02*
X023581Y017205D01*
X023648Y017047D02*
X025067Y017047D01*
X025067Y016888D02*
X023662Y016888D01*
X023630Y016730D02*
X025067Y016730D01*
X025067Y016571D02*
X023541Y016571D01*
X023348Y016413D02*
X025067Y016413D01*
X025067Y016254D02*
X023546Y016254D01*
X023632Y016096D02*
X025067Y016096D01*
X025067Y015937D02*
X023662Y015937D01*
X023646Y015779D02*
X025067Y015779D01*
X025067Y015620D02*
X023577Y015620D01*
X023423Y015462D02*
X025067Y015462D01*
X025067Y015303D02*
X023502Y015303D01*
X023612Y015145D02*
X025067Y015145D01*
X025067Y014986D02*
X023657Y014986D01*
X023655Y014828D02*
X025067Y014828D01*
X025067Y014669D02*
X023604Y014669D01*
X023485Y014511D02*
X025067Y014511D01*
X025067Y014352D02*
X023447Y014352D01*
X023587Y014194D02*
X025067Y014194D01*
X025067Y014035D02*
X023650Y014035D01*
X023662Y013877D02*
X025067Y013877D01*
X025067Y013718D02*
X023626Y013718D01*
X023533Y013560D02*
X025067Y013560D01*
X025067Y013401D02*
X023370Y013401D01*
X023554Y013243D02*
X025067Y013243D01*
X023132Y012767D02*
X023092Y012767D01*
X023092Y012609D02*
X023132Y012609D01*
X023132Y012450D02*
X023092Y012450D01*
X023092Y012292D02*
X023132Y012292D01*
X023132Y012133D02*
X023092Y012133D01*
X023092Y011975D02*
X023132Y011975D01*
X023132Y011816D02*
X023092Y011816D01*
X023092Y011658D02*
X023132Y011658D01*
X023132Y011499D02*
X023092Y011499D01*
X023120Y011182D02*
X025067Y011182D01*
X025067Y011024D02*
X023212Y011024D01*
X023212Y010865D02*
X023749Y010865D01*
X023753Y010869D02*
X023629Y010745D01*
X023562Y010583D01*
X023562Y009808D01*
X023629Y009646D01*
X023753Y009523D01*
X023782Y009510D01*
X023782Y008321D01*
X023753Y008309D01*
X023629Y008185D01*
X023562Y008023D01*
X023562Y007248D01*
X023629Y007086D01*
X023753Y006963D01*
X023914Y006896D01*
X024089Y006896D01*
X024251Y006963D01*
X024375Y007086D01*
X024442Y007248D01*
X024442Y008023D01*
X024375Y008185D01*
X024251Y008309D01*
X024222Y008321D01*
X024222Y009510D01*
X024251Y009523D01*
X024375Y009646D01*
X024442Y009808D01*
X024442Y010583D01*
X024375Y010745D01*
X024251Y010869D01*
X024089Y010936D01*
X023914Y010936D01*
X023753Y010869D01*
X023613Y010707D02*
X023212Y010707D01*
X023212Y010548D02*
X023562Y010548D01*
X023562Y010390D02*
X023212Y010390D01*
X023212Y010231D02*
X023562Y010231D01*
X023562Y010073D02*
X023212Y010073D01*
X023212Y009914D02*
X023562Y009914D01*
X023584Y009756D02*
X023212Y009756D01*
X023212Y009597D02*
X023678Y009597D01*
X023782Y009439D02*
X023212Y009439D01*
X023212Y009280D02*
X023782Y009280D01*
X023782Y009122D02*
X023212Y009122D01*
X023212Y008963D02*
X023782Y008963D01*
X023782Y008805D02*
X023212Y008805D01*
X023212Y008646D02*
X023782Y008646D01*
X023782Y008488D02*
X023212Y008488D01*
X023212Y008329D02*
X023782Y008329D01*
X023623Y008171D02*
X023212Y008171D01*
X023212Y008012D02*
X023562Y008012D01*
X023562Y007854D02*
X023212Y007854D01*
X023212Y007695D02*
X023562Y007695D01*
X023562Y007537D02*
X023212Y007537D01*
X023212Y007378D02*
X023562Y007378D01*
X023574Y007220D02*
X023212Y007220D01*
X023212Y007061D02*
X023654Y007061D01*
X023897Y006903D02*
X023212Y006903D01*
X023207Y006744D02*
X025067Y006744D01*
X025067Y006586D02*
X023106Y006586D01*
X022948Y006427D02*
X025067Y006427D01*
X025067Y006269D02*
X022789Y006269D01*
X022631Y006110D02*
X023147Y006110D01*
X022904Y005952D02*
X022512Y005952D01*
X022749Y005793D02*
X021665Y005793D01*
X021518Y005635D02*
X022640Y005635D01*
X022560Y005476D02*
X021518Y005476D01*
X021518Y005318D02*
X022503Y005318D01*
X022471Y005159D02*
X021513Y005159D01*
X021536Y005001D02*
X022461Y005001D01*
X022461Y004842D02*
X021536Y004842D01*
X021536Y004684D02*
X022461Y004684D01*
X022461Y004525D02*
X021536Y004525D01*
X021536Y004367D02*
X022461Y004367D01*
X022461Y004208D02*
X021536Y004208D01*
X022461Y004050D02*
X017563Y004050D01*
X017563Y004012D02*
X017563Y004719D01*
X017481Y004801D01*
X016656Y004801D01*
X016574Y004719D01*
X016574Y004012D01*
X016656Y003930D01*
X017481Y003930D01*
X017563Y004012D01*
X017563Y004208D02*
X019524Y004208D01*
X019524Y004367D02*
X017563Y004367D01*
X017563Y004525D02*
X019191Y004525D01*
X019033Y004684D02*
X017563Y004684D01*
X016691Y005001D02*
X018842Y005001D01*
X018842Y005159D02*
X016757Y005159D01*
X016754Y005318D02*
X018842Y005318D01*
X018842Y005476D02*
X016677Y005476D01*
X016382Y005635D02*
X018842Y005635D01*
X018842Y005793D02*
X016359Y005793D01*
X016124Y005793D02*
X016124Y005793D01*
X016124Y005635D02*
X016124Y005635D01*
X016124Y005557D02*
X016124Y005557D01*
X016457Y004842D02*
X018874Y004842D01*
X019338Y005001D02*
X019524Y005001D01*
X019510Y005159D02*
X019282Y005159D01*
X019282Y005318D02*
X019506Y005318D01*
X019506Y005476D02*
X019282Y005476D01*
X019282Y005635D02*
X019506Y005635D01*
X019506Y005793D02*
X019282Y005793D01*
X019282Y005952D02*
X019506Y005952D01*
X019548Y006110D02*
X019282Y006110D01*
X019282Y006269D02*
X019741Y006269D01*
X019741Y006427D02*
X019282Y006427D01*
X019282Y006586D02*
X019741Y006586D01*
X019741Y006744D02*
X019282Y006744D01*
X019282Y006903D02*
X019517Y006903D01*
X019726Y006903D02*
X019741Y006903D01*
X020181Y007061D02*
X021008Y007061D01*
X020935Y007220D02*
X020181Y007220D01*
X020181Y007378D02*
X020922Y007378D01*
X020922Y007537D02*
X020062Y007537D01*
X020062Y007695D02*
X020922Y007695D01*
X020922Y007854D02*
X020062Y007854D01*
X020062Y008012D02*
X020928Y008012D01*
X020983Y008171D02*
X020001Y008171D01*
X019622Y007636D02*
X019961Y007297D01*
X019961Y005616D01*
X019524Y004842D02*
X019496Y004842D01*
X021609Y006903D02*
X022014Y006903D01*
X022202Y006903D02*
X022242Y006903D01*
X022242Y007061D02*
X022202Y007061D01*
X022202Y007220D02*
X022242Y007220D01*
X022242Y007378D02*
X022202Y007378D01*
X022202Y007537D02*
X022242Y007537D01*
X022242Y007695D02*
X022202Y007695D01*
X022202Y007854D02*
X022242Y007854D01*
X022242Y008012D02*
X022202Y008012D01*
X022202Y008171D02*
X022242Y008171D01*
X022242Y008329D02*
X022202Y008329D01*
X021947Y008329D02*
X021677Y008329D01*
X022497Y008329D02*
X022612Y008329D01*
X021845Y009597D02*
X021778Y009597D01*
X021807Y011499D02*
X021417Y011499D01*
X021557Y011658D02*
X021667Y011658D01*
X019442Y011658D02*
X019418Y011658D01*
X018525Y012292D02*
X018146Y012292D01*
X018508Y013243D02*
X016232Y013243D01*
X016212Y012916D02*
X019212Y012916D01*
X019280Y013243D02*
X019442Y013243D01*
X019442Y013401D02*
X019140Y013401D01*
X019144Y013243D02*
X019116Y013243D01*
X019082Y013560D02*
X019442Y013560D01*
X019442Y013718D02*
X018920Y013718D01*
X018762Y013877D02*
X019442Y013877D01*
X019442Y014035D02*
X018603Y014035D01*
X018445Y014194D02*
X019442Y014194D01*
X019442Y014352D02*
X018940Y014352D01*
X019091Y014511D02*
X019442Y014511D01*
X019442Y014669D02*
X019132Y014669D01*
X019132Y014687D02*
X018328Y014687D01*
X018328Y015075D01*
X018328Y014687D01*
X018328Y014687D01*
X018328Y014687D01*
X018328Y014828D02*
X018328Y014828D01*
X018328Y014986D02*
X018328Y014986D01*
X018259Y015127D02*
X018813Y015127D01*
X018941Y015180D01*
X019039Y015278D01*
X019092Y015405D01*
X019092Y015544D01*
X019039Y015672D01*
X018941Y015770D01*
X018813Y015822D01*
X018259Y015822D01*
X018131Y015770D01*
X018034Y015672D01*
X017981Y015544D01*
X017981Y015405D01*
X018034Y015278D01*
X018131Y015180D01*
X018259Y015127D01*
X018216Y015145D02*
X017932Y015145D01*
X017932Y015303D02*
X018023Y015303D01*
X017981Y015462D02*
X017932Y015462D01*
X017932Y015620D02*
X018012Y015620D01*
X017932Y015779D02*
X018153Y015779D01*
X018204Y015937D02*
X017932Y015937D01*
X018021Y016096D02*
X017793Y016096D01*
X017634Y016254D02*
X017981Y016254D01*
X018014Y016413D02*
X017482Y016413D01*
X017632Y016257D02*
X017632Y016257D01*
X017412Y016166D02*
X017136Y016166D01*
X017106Y016196D01*
X017412Y016166D02*
X017712Y015866D01*
X017712Y014616D01*
X018812Y013516D01*
X018812Y013366D01*
X018484Y013401D02*
X017766Y013401D01*
X017906Y013560D02*
X018457Y013560D01*
X018298Y013718D02*
X017938Y013718D01*
X017938Y013877D02*
X018140Y013877D01*
X017981Y014035D02*
X017938Y014035D01*
X017932Y014828D02*
X017967Y014828D01*
X017932Y014986D02*
X018079Y014986D01*
X017492Y014986D02*
X017426Y014986D01*
X017482Y015145D02*
X017492Y015145D01*
X017492Y015303D02*
X017469Y015303D01*
X017492Y015462D02*
X017413Y015462D01*
X017492Y015620D02*
X017332Y015620D01*
X017488Y015779D02*
X017173Y015779D01*
X016743Y015303D02*
X016469Y015303D01*
X016482Y015145D02*
X016730Y015145D01*
X016786Y014986D02*
X016426Y014986D01*
X017948Y016888D02*
X018019Y016888D01*
X018881Y016730D02*
X020637Y016730D01*
X020735Y016571D02*
X018907Y016571D01*
X019058Y016413D02*
X020979Y016413D01*
X020729Y016254D02*
X019092Y016254D01*
X019051Y016096D02*
X020381Y016096D01*
X020512Y015916D02*
X021112Y015916D01*
X020222Y015937D02*
X018868Y015937D01*
X018919Y015779D02*
X020064Y015779D01*
X019905Y015620D02*
X019060Y015620D01*
X019092Y015462D02*
X019747Y015462D01*
X019588Y015303D02*
X019049Y015303D01*
X018856Y015145D02*
X019442Y015145D01*
X019442Y014986D02*
X018993Y014986D01*
X019106Y014828D02*
X019442Y014828D01*
X017981Y017839D02*
X017899Y017839D01*
X018018Y017998D02*
X016288Y017998D01*
X020612Y022467D02*
X022103Y022467D01*
X022112Y022475D01*
X022112Y021356D02*
X022112Y020896D01*
X022482Y020896D01*
X023112Y020266D01*
X023112Y019916D01*
X023092Y020058D02*
X023132Y020058D01*
X023132Y020217D02*
X023092Y020217D01*
X023092Y020375D02*
X023132Y020375D01*
X016312Y012016D02*
X016263Y011967D01*
X015612Y011967D01*
X014277Y012292D02*
X014146Y012292D01*
X016439Y009280D02*
X016642Y009280D01*
X016642Y009122D02*
X016566Y009122D01*
X016565Y008646D02*
X016659Y008646D01*
X016789Y008488D02*
X016435Y008488D01*
X017435Y008488D02*
X017602Y008488D01*
X017602Y008646D02*
X017565Y008646D01*
X018493Y007695D02*
X018991Y007695D01*
X019150Y007537D02*
X018652Y007537D01*
X018810Y007378D02*
X019182Y007378D01*
X019194Y007220D02*
X018969Y007220D01*
X019127Y007061D02*
X019274Y007061D01*
X021796Y007061D02*
X021828Y007061D01*
X022429Y006903D02*
X022575Y006903D01*
X024002Y007636D02*
X024002Y010196D01*
X024442Y010231D02*
X025067Y010231D01*
X025067Y010073D02*
X024442Y010073D01*
X024442Y009914D02*
X025067Y009914D01*
X025067Y009756D02*
X024420Y009756D01*
X024326Y009597D02*
X025067Y009597D01*
X025067Y009439D02*
X024222Y009439D01*
X024222Y009280D02*
X025067Y009280D01*
X025067Y009122D02*
X024222Y009122D01*
X024222Y008963D02*
X025067Y008963D01*
X025067Y008805D02*
X024222Y008805D01*
X024222Y008646D02*
X025067Y008646D01*
X025067Y008488D02*
X024222Y008488D01*
X024222Y008329D02*
X025067Y008329D01*
X025067Y008171D02*
X024381Y008171D01*
X024442Y008012D02*
X025067Y008012D01*
X025067Y007854D02*
X024442Y007854D01*
X024442Y007695D02*
X025067Y007695D01*
X025067Y007537D02*
X024442Y007537D01*
X024442Y007378D02*
X025067Y007378D01*
X025067Y007220D02*
X024430Y007220D01*
X024350Y007061D02*
X025067Y007061D01*
X025067Y006903D02*
X024106Y006903D01*
X022461Y003891D02*
X008448Y003891D01*
X008448Y003733D02*
X022461Y003733D01*
X016574Y004050D02*
X016244Y004050D01*
X016244Y004208D02*
X016574Y004208D01*
X016574Y004367D02*
X016244Y004367D01*
X016244Y004525D02*
X016574Y004525D01*
X016574Y004684D02*
X016244Y004684D01*
X013661Y004050D02*
X008448Y004050D01*
X008448Y004208D02*
X009047Y004208D01*
X009016Y004367D02*
X008448Y004367D01*
X008448Y004525D02*
X009016Y004525D01*
X009895Y007695D02*
X009908Y007695D01*
X017534Y011024D02*
X017689Y011024D01*
X017689Y011182D02*
X017534Y011182D01*
X017534Y011341D02*
X017689Y011341D01*
X024255Y010865D02*
X025067Y010865D01*
X025067Y010707D02*
X024391Y010707D01*
X024442Y010548D02*
X025067Y010548D01*
X025067Y010390D02*
X024442Y010390D01*
X010612Y022467D02*
X009112Y022467D01*
X009112Y021364D02*
X009112Y021116D01*
X008112Y020116D01*
X008112Y019916D01*
X008092Y020058D02*
X008132Y020058D01*
X008132Y020217D02*
X008092Y020217D01*
X008092Y020375D02*
X008132Y020375D01*
X007809Y020375D02*
X007704Y020375D01*
D28*
X013312Y015416D02*
X013312Y015116D01*
X012817Y014687D01*
X012817Y013469D01*
X012763Y013416D01*
X012763Y011314D01*
X012711Y011314D01*
X011812Y010416D01*
X011812Y006816D01*
X011562Y006566D01*
X011802Y006566D01*
X011562Y006566D02*
X010962Y006566D01*
X010462Y007066D01*
X010462Y007566D01*
X009511Y008517D01*
X009511Y008566D02*
X009112Y008964D01*
X009112Y009916D01*
X008112Y008916D01*
X007112Y008916D01*
X007112Y006916D02*
X007512Y006916D01*
X008762Y005666D01*
X009316Y005666D01*
X009322Y005660D01*
X009562Y005566D02*
X010262Y005566D01*
X010662Y005166D01*
X012662Y005166D01*
X012912Y005416D01*
X012912Y005866D01*
X013362Y006316D01*
X014512Y006316D01*
X015012Y005816D01*
X015112Y008886D02*
X015062Y008936D01*
X015062Y010266D01*
X015612Y010816D01*
X015612Y010864D01*
X013612Y010864D01*
X013611Y010866D01*
X013212Y010866D01*
X012763Y011314D01*
X013312Y015416D02*
X013612Y015716D01*
X016812Y015716D01*
X017112Y015416D01*
X017106Y015196D01*
X022112Y011916D02*
X022112Y011766D01*
X022912Y010966D01*
X022912Y006816D01*
X022262Y006166D01*
X021612Y006166D01*
X021562Y006116D01*
X021613Y006166D02*
X022262Y006166D01*
X021613Y006166D02*
X021063Y005616D01*
X021081Y004603D01*
X010662Y004614D02*
X010662Y005166D01*
D29*
X012612Y006416D03*
X012612Y007416D03*
X013612Y007416D03*
X014612Y007416D03*
X015612Y006416D03*
X016612Y006416D03*
X017612Y006416D03*
X018562Y005416D03*
X018662Y004216D03*
X020912Y006966D03*
X021862Y006716D03*
X022262Y006166D03*
X023612Y006666D03*
X022312Y009016D03*
X021812Y009016D03*
X020362Y011316D03*
X020212Y012416D03*
X019212Y012916D03*
X018812Y013366D03*
X019212Y011916D03*
X018262Y011916D03*
X018362Y011216D03*
X017662Y010066D03*
X018712Y009916D03*
X018962Y009516D03*
X018162Y007716D03*
X018912Y007466D03*
X016512Y010466D03*
X015662Y009516D03*
X014512Y009516D03*
X014812Y011416D03*
X014012Y012716D03*
X012112Y012416D03*
X011312Y012216D03*
X011412Y011516D03*
X012012Y011616D03*
X011112Y010416D03*
X010912Y013216D03*
X011712Y014716D03*
X014112Y016916D03*
X014112Y017616D03*
X013612Y018016D03*
X013212Y017416D03*
X011562Y019066D03*
X014462Y019216D03*
X014862Y019716D03*
X015112Y018766D03*
X016112Y017716D03*
X016412Y018716D03*
X016312Y019616D03*
X017662Y018366D03*
X017712Y017116D03*
X016612Y014716D03*
X015112Y017116D03*
X016312Y012016D03*
X020362Y013366D03*
X023962Y011266D03*
X007612Y011416D03*
X007612Y010416D03*
X007212Y012516D03*
M02*
