G75*
%MOIN*%
%OFA0B0*%
%FSLAX24Y24*%
%IPPOS*%
%LPD*%
%AMOC8*
5,1,8,0,0,1.08239X$1,22.5*
%
%ADD10R,0.0847X0.0651*%
%ADD11R,0.0847X0.1556*%
%ADD12R,0.0690X0.0769*%
%ADD13R,0.0800X0.0800*%
%ADD14C,0.0800*%
%ADD15C,0.0660*%
%ADD16R,0.0690X0.0847*%
%ADD17R,0.0532X0.0532*%
%ADD18C,0.0532*%
%ADD19R,0.0847X0.0690*%
%ADD20R,0.0770X0.0690*%
%ADD21C,0.0476*%
%ADD22C,0.1320*%
%ADD23C,0.0760*%
%ADD24R,0.0217X0.0611*%
%ADD25C,0.0395*%
%ADD26R,0.0787X0.0669*%
%ADD27R,0.1063X0.0669*%
D10*
X009322Y005660D03*
X009322Y006566D03*
X009322Y007471D03*
D11*
X011802Y006566D03*
D12*
X010613Y004666D03*
X009511Y004666D03*
X009511Y008566D03*
X010613Y008566D03*
X011661Y013416D03*
X012763Y013416D03*
D13*
X018112Y008886D03*
D14*
X017112Y008886D03*
X016112Y008886D03*
X015112Y008886D03*
X014112Y008886D03*
X013112Y008886D03*
X010112Y013916D03*
X010112Y014916D03*
X009112Y014916D03*
X008112Y014916D03*
X008112Y013916D03*
X009112Y013916D03*
X009112Y015916D03*
X010112Y015916D03*
X010112Y016916D03*
X010112Y017916D03*
X009112Y017916D03*
X008112Y017916D03*
X008112Y016916D03*
X009112Y016916D03*
X008112Y015916D03*
X008112Y018916D03*
X008112Y019916D03*
X009112Y019916D03*
X010112Y019916D03*
X010112Y018916D03*
X009112Y018916D03*
X021112Y018916D03*
X021112Y019916D03*
X022112Y019916D03*
X023112Y019916D03*
X023112Y018916D03*
X022112Y018916D03*
X022112Y017916D03*
X023112Y017916D03*
X023112Y016916D03*
X022112Y016916D03*
X021112Y016916D03*
X021112Y017916D03*
X021112Y015916D03*
X022112Y015916D03*
X023112Y015916D03*
X023112Y014916D03*
X022112Y014916D03*
X022112Y013916D03*
X023112Y013916D03*
X023112Y012916D03*
X022112Y012916D03*
X022112Y011916D03*
X023112Y011916D03*
X021112Y011916D03*
X021112Y012916D03*
X021112Y013916D03*
X021112Y014916D03*
D15*
X021402Y010496D02*
X021402Y009896D01*
X022222Y009896D02*
X022222Y010496D01*
X024002Y010496D02*
X024002Y009896D01*
X024002Y007936D02*
X024002Y007336D01*
X022222Y007336D02*
X022222Y007936D01*
X021402Y007936D02*
X021402Y007336D01*
X019622Y007336D02*
X019622Y007936D01*
X019622Y009896D02*
X019622Y010496D01*
X007412Y008916D02*
X006812Y008916D01*
X006812Y007916D02*
X007412Y007916D01*
X007412Y006916D02*
X006812Y006916D01*
D16*
X019961Y005616D03*
X019979Y004603D03*
X021081Y004603D03*
X021063Y005616D03*
D17*
X017106Y016196D03*
X014106Y016196D03*
D18*
X014106Y015196D03*
X015106Y015196D03*
X016106Y015196D03*
X017106Y015196D03*
X016106Y016196D03*
X015106Y016196D03*
D19*
X015612Y011967D03*
X015612Y010864D03*
X013612Y010864D03*
X013612Y011967D03*
X017612Y011967D03*
X017612Y010864D03*
X020612Y021364D03*
X020612Y022467D03*
X010612Y022467D03*
X010612Y021364D03*
X009112Y021364D03*
X009112Y022467D03*
D20*
X022112Y022475D03*
X022112Y021356D03*
D21*
X018744Y020199D02*
X018328Y020199D01*
X018328Y019412D02*
X018744Y019412D01*
X018744Y018624D02*
X018328Y018624D01*
X018328Y017837D02*
X018744Y017837D01*
X018744Y017049D02*
X018328Y017049D01*
X018328Y016262D02*
X018744Y016262D01*
X018744Y015475D02*
X018328Y015475D01*
X018328Y014687D02*
X018744Y014687D01*
X017590Y014120D02*
X017590Y013705D01*
X016803Y013705D02*
X016803Y014120D01*
X016015Y014120D02*
X016015Y013705D01*
X015228Y013705D02*
X015228Y014120D01*
X014441Y014120D02*
X014441Y013705D01*
X013653Y013705D02*
X013653Y014120D01*
X012817Y014687D02*
X012401Y014687D01*
X012401Y015475D02*
X012817Y015475D01*
X012817Y016262D02*
X012401Y016262D01*
X012401Y017049D02*
X012817Y017049D01*
X012817Y017837D02*
X012401Y017837D01*
X012401Y018624D02*
X012817Y018624D01*
X012817Y019412D02*
X012401Y019412D01*
X012401Y020199D02*
X012817Y020199D01*
D22*
X007187Y004990D03*
X023722Y004990D03*
X023722Y021526D03*
X007187Y021526D03*
D23*
X008112Y012916D03*
X009112Y012916D03*
X010112Y012916D03*
X010112Y011916D03*
X009112Y011916D03*
X008112Y011916D03*
X008112Y010916D03*
X009112Y010916D03*
X010112Y010916D03*
X010112Y009916D03*
X009112Y009916D03*
X008112Y009916D03*
D24*
X015100Y005429D03*
X015356Y005429D03*
X015612Y005429D03*
X015868Y005429D03*
X016124Y005429D03*
D25*
X016360Y005232D03*
X014864Y005232D03*
D26*
X014161Y004366D03*
X017062Y004366D03*
D27*
X015612Y004366D03*
M02*
